o edge-rounded-empty-sphere-4
v 4 3.19509 3.980785 1
v 4 3.75 3 1
v 4 3 3.75 1
v 4 3.287013 3.69291 1
v 4 3.416678 3.623602 1
v 4 3.53033 3.53033 1
v 4 3.146318 3.735589 1
v 4 3.735589 3.146318 1
v 4 3.623602 3.416678 1
v 4 3.69291 3.287013 1
v 4.2921005 3 3.923879 1
v 4.4240645 3.162212 3.815493 1
v 4.2921005 3.18024 3.906127 1
v 4.1489115 3.191342 3.96194 1
v 4.4240645 3.31819 3.768178 1
v 4.2921005 3.353553 3.853553 1
v 4.1489115 3.37533 3.906127 1
v 4.4240645 3.46194 3.691341 1
v 4.2921005 3.51328 3.768178 1
v 4.1489115 3.544895 3.815493 1
v 4.4240645 3.587938 3.587938 1
v 4.2921005 3.653281 3.653281 1
v 4.1489115 3.69352 3.69352 1
v 4.4240645 3.691341 3.46194 1
v 4.2921005 3.768178 3.51328 1
v 4.1489115 3.815493 3.544895 1
v 4.4240645 3.768177 3.318189 1
v 4.2921005 3.853553 3.353553 1
v 4.1489115 3.906127 3.37533 1
v 4.4240645 3.815493 3.162212 1
v 4.2921005 3.906127 3.18024 1
v 4.1489115 3.961939 3.191342 1
v 4.1489115 3.980785 3 1
v 4.4240645 3.831469 3 1
v 4.2921005 3.923879 3 1
v 4.4998375 3.75 3 1
v 4 3.999999 3 1
v 4.4240645 3 3.831469 1
v 4.1489115 3 3.980785 1
v 4 3 4 1
v 4.4998375 3 3.75 1
v 4 3.382683 3.923879 1
v 4 3.707106 3.707106 1
v 4 3.831469 3.55557 1
v 4 3.55557 3.831469 1
v 4 3.923879 3.382683 1
v 4 3.980785 3.19509 1
v 4.4998375 3.146318 3.735589 1
v 4.499837 3.287013 3.69291 1
v 4.4998375 3.416678 3.623602 1
v 4.4998375 3.53033 3.53033 1
v 4.4998375 3.623602 3.416678 1
v 4.499837 3.69291 3.287013 1
v 4.4998375 3.735589 3.146318 1
f 36 2 37 33 35 34
f 11 39 40 3 41 38
f 42 45 5 4
f 43 44 9 6
f 1 7 3 40
f 47 8 10 46
f 42 4 7 1
f 43 6 5 45
f 46 10 9 44
f 37 2 8 47
f 41 3 7 48
f 48 7 4 49
f 49 4 5 50
f 5 6 51 50
f 51 6 9 52
f 52 9 10 53
f 53 10 8 54
f 54 8 2 36
f 1 40 39 14
f 48 12 38 41
f 11 38 12 13
f 39 11 13 14
f 49 15 12 48
f 13 12 15 16
f 14 13 16 17
f 1 14 17 42
f 50 18 15 49
f 16 15 18 19
f 17 16 19 20
f 17 20 45 42
f 51 21 18 50
f 19 18 21 22
f 20 19 22 23
f 20 23 43 45
f 52 24 21 51
f 22 21 24 25
f 23 22 25 26
f 43 23 26 44
f 25 24 27 28
f 26 25 28 29
f 44 26 29 46
f 53 27 24 52
f 54 30 27 53
f 28 27 30 31
f 29 28 31 32
f 46 29 32 47
f 32 31 35 33
f 47 32 33 37
f 36 34 30 54
f 35 31 30 34
o cube
v 3 3 4 1
v 3 2 4 1
v 4 2 4 1
v 4 3 4 1
v 3 3 3 1
v 3 2 3 1
v 4 2 3 1
v 4 3 3 1
f 55 56 57 58
f 62 61 60 59
f 58 57 61 62
f 59 55 58 62
f 59 60 56 55
f 56 60 61 57
o edge-rounded-empty-sphere-4
v 3.19509 3.980785 4 1
v 3.75 3 4 1
v 3 3.75 4 1
v 3.287013 3.69291 4 1
v 3.416678 3.623602 4 1
v 3.53033 3.53033 4 1
v 3.146318 3.735589 4 1
v 3.735589 3.146318 4 1
v 3.623602 3.416678 4 1
v 3.69291 3.287013 4 1
v 3 3.923879 4.2921005 1
v 3.162212 3.815493 4.4240645 1
v 3.18024 3.906127 4.2921005 1
v 3.191342 3.96194 4.1489115 1
v 3.31819 3.768178 4.4240645 1
v 3.353553 3.853553 4.2921005 1
v 3.37533 3.906127 4.1489115 1
v 3.46194 3.691341 4.4240645 1
v 3.51328 3.768178 4.2921005 1
v 3.544895 3.815493 4.1489115 1
v 3.587938 3.587938 4.4240645 1
v 3.653281 3.653281 4.2921005 1
v 3.69352 3.69352 4.1489115 1
v 3.691341 3.46194 4.4240645 1
v 3.768178 3.51328 4.2921005 1
v 3.815493 3.544895 4.1489115 1
v 3.768177 3.318189 4.4240645 1
v 3.853553 3.353553 4.2921005 1
v 3.906127 3.37533 4.1489115 1
v 3.815493 3.162212 4.4240645 1
v 3.906127 3.18024 4.2921005 1
v 3.961939 3.191342 4.1489115 1
v 3.980785 3 4.1489115 1
v 3.831469 3 4.4240645 1
v 3.923879 3 4.2921005 1
v 3.75 3 4.4998375 1
v 3.999999 3 4 1
v 3 3.831469 4.4240645 1
v 3 3.980785 4.1489115 1
v 3 4 4 1
v 3 3.75 4.4998375 1
v 3.382683 3.923879 4 1
v 3.707106 3.707106 4 1
v 3.831469 3.55557 4 1
v 3.55557 3.831469 4 1
v 3.923879 3.382683 4 1
v 3.980785 3.19509 4 1
v 3.146318 3.735589 4.4998375 1
v 3.287013 3.69291 4.499837 1
v 3.416678 3.623602 4.4998375 1
v 3.53033 3.53033 4.4998375 1
v 3.623602 3.416678 4.4998375 1
v 3.69291 3.287013 4.499837 1
v 3.735589 3.146318 4.4998375 1
f 98 64 99 95 97 96
f 73 101 102 65 103 100
f 104 107 67 66
f 105 106 71 68
f 63 69 65 102
f 109 70 72 108
f 104 66 69 63
f 105 68 67 107
f 108 72 71 106
f 99 64 70 109
f 103 65 69 110
f 110 69 66 111
f 111 66 67 112
f 67 68 113 112
f 113 68 71 114
f 114 71 72 115
f 115 72 70 116
f 116 70 64 98
f 63 102 101 76
f 110 74 100 103
f 73 100 74 75
f 101 73 75 76
f 111 77 74 110
f 75 74 77 78
f 76 75 78 79
f 63 76 79 104
f 112 80 77 111
f 78 77 80 81
f 79 78 81 82
f 79 82 107 104
f 113 83 80 112
f 81 80 83 84
f 82 81 84 85
f 82 85 105 107
f 114 86 83 113
f 84 83 86 87
f 85 84 87 88
f 105 85 88 106
f 87 86 89 90
f 88 87 90 91
f 106 88 91 108
f 115 89 86 114
f 116 92 89 115
f 90 89 92 93
f 91 90 93 94
f 108 91 94 109
f 94 93 97 95
f 109 94 95 99
f 98 96 92 116
f 97 93 92 96
o cube
v 3 3 3 1
v 3 2 3 1
v 4 2 3 1
v 4 3 3 1
v 3 3 2 1
v 3 2 2 1
v 4 2 2 1
v 4 3 2 1
f 117 118 119 120
f 124 123 122 121
f 120 119 123 124
f 121 117 120 124
f 121 122 118 117
f 118 122 123 119
o cube
v 0 1 9 1
v 0 0 9 1
v 1 0 9 1
v 1 1 9 1
v 0 1 1 1
v 0 0 1 1
v 1 0 1 1
v 1 1 1 1
f 125 126 127 128
f 132 131 130 129
f 128 127 131 132
f 129 125 128 132
f 129 130 126 125
f 126 130 131 127
o cube
v -2 1 1 1
v -2 0 1 1
v 0 0 1 1
v 0 1 1 1
v -2 1 0 1
v -2 0 0 1
v 0 0 0 1
v 0 1 0 1
f 133 134 135 136
f 140 139 138 137
f 136 135 139 140
f 137 133 136 140
f 137 138 134 133
f 134 138 139 135
o edge-rounded-empty-sphere-4
v 2.80491 2.019215 4 1
v 2.25 3 4 1
v 3 2.25 4 1
v 2.712987 2.30709 4 1
v 2.583322 2.376398 4 1
v 2.46967 2.46967 4 1
v 2.853682 2.264411 4 1
v 2.264411 2.853682 4 1
v 2.376398 2.583322 4 1
v 2.30709 2.712987 4 1
v 3 2.076121 4.2921005 1
v 2.837788 2.184507 4.4240645 1
v 2.81976 2.093873 4.2921005 1
v 2.808658 2.03806 4.1489115 1
v 2.68181 2.231822 4.4240645 1
v 2.646447 2.146447 4.2921005 1
v 2.62467 2.093873 4.1489115 1
v 2.53806 2.308659 4.4240645 1
v 2.48672 2.231822 4.2921005 1
v 2.455105 2.184507 4.1489115 1
v 2.412062 2.412062 4.4240645 1
v 2.346719 2.346719 4.2921005 1
v 2.30648 2.30648 4.1489115 1
v 2.308659 2.53806 4.4240645 1
v 2.231822 2.48672 4.2921005 1
v 2.184507 2.455105 4.1489115 1
v 2.231823 2.681811 4.4240645 1
v 2.146447 2.646447 4.2921005 1
v 2.093873 2.62467 4.1489115 1
v 2.184507 2.837788 4.4240645 1
v 2.093873 2.81976 4.2921005 1
v 2.038061 2.808658 4.1489115 1
v 2.019215 3 4.1489115 1
v 2.168531 3 4.4240645 1
v 2.076121 3 4.2921005 1
v 2.25 3 4.4998375 1
v 2.000001 3 4 1
v 3 2.168531 4.4240645 1
v 3 2.019215 4.1489115 1
v 3 2 4 1
v 3 2.25 4.4998375 1
v 2.617317 2.076121 4 1
v 2.292894 2.292894 4 1
v 2.168531 2.44443 4 1
v 2.44443 2.168531 4 1
v 2.076121 2.617317 4 1
v 2.019215 2.80491 4 1
v 2.853682 2.264411 4.4998375 1
v 2.712987 2.30709 4.499837 1
v 2.583322 2.376398 4.4998375 1
v 2.46967 2.46967 4.4998375 1
v 2.376398 2.583322 4.4998375 1
v 2.30709 2.712987 4.499837 1
v 2.264411 2.853682 4.4998375 1
f 176 142 177 173 175 174
f 151 179 180 143 181 178
f 182 185 145 144
f 183 184 149 146
f 141 147 143 180
f 187 148 150 186
f 182 144 147 141
f 183 146 145 185
f 186 150 149 184
f 177 142 148 187
f 181 143 147 188
f 188 147 144 189
f 189 144 145 190
f 145 146 191 190
f 191 146 149 192
f 192 149 150 193
f 193 150 148 194
f 194 148 142 176
f 141 180 179 154
f 188 152 178 181
f 151 178 152 153
f 179 151 153 154
f 189 155 152 188
f 153 152 155 156
f 154 153 156 157
f 141 154 157 182
f 190 158 155 189
f 156 155 158 159
f 157 156 159 160
f 157 160 185 182
f 191 161 158 190
f 159 158 161 162
f 160 159 162 163
f 160 163 183 185
f 192 164 161 191
f 162 161 164 165
f 163 162 165 166
f 183 163 166 184
f 165 164 167 168
f 166 165 168 169
f 184 166 169 186
f 193 167 164 192
f 194 170 167 193
f 168 167 170 171
f 169 168 171 172
f 186 169 172 187
f 172 171 175 173
f 187 172 173 177
f 176 174 170 194
f 175 171 170 174
o cube
v 2 4 4 1
v 2 3 4 1
v 3 3 4 1
v 3 4 4 1
v 2 4 3 1
v 2 3 3 1
v 3 3 3 1
v 3 4 3 1
f 195 196 197 198
f 202 201 200 199
f 198 197 201 202
f 199 195 198 202
f 199 200 196 195
f 196 200 201 197
o edge-rounded-empty-sphere-4
v 2 3.19509 2.019215 1
v 2 3.75 3 1
v 2 3 2.25 1
v 2 3.287013 2.30709 1
v 2 3.416678 2.376398 1
v 2 3.53033 2.46967 1
v 2 3.146318 2.264411 1
v 2 3.735589 2.853682 1
v 2 3.623602 2.583322 1
v 2 3.69291 2.712987 1
v 1.7078995 3 2.076121 1
v 1.5759355 3.162212 2.184507 1
v 1.7078995 3.18024 2.093873 1
v 1.8510885 3.191342 2.03806 1
v 1.5759355 3.31819 2.231822 1
v 1.7078995 3.353553 2.146447 1
v 1.8510885 3.37533 2.093873 1
v 1.5759355 3.46194 2.308659 1
v 1.7078995 3.51328 2.231822 1
v 1.8510885 3.544895 2.184507 1
v 1.5759355 3.587938 2.412062 1
v 1.7078995 3.653281 2.346719 1
v 1.8510885 3.69352 2.30648 1
v 1.5759355 3.691341 2.53806 1
v 1.7078995 3.768178 2.48672 1
v 1.8510885 3.815493 2.455105 1
v 1.5759355 3.768177 2.681811 1
v 1.7078995 3.853553 2.646447 1
v 1.8510885 3.906127 2.62467 1
v 1.5759355 3.815493 2.837788 1
v 1.7078995 3.906127 2.81976 1
v 1.8510885 3.961939 2.808658 1
v 1.8510885 3.980785 3 1
v 1.5759355 3.831469 3 1
v 1.7078995 3.923879 3 1
v 1.5001625 3.75 3 1
v 2 3.999999 3 1
v 1.5759355 3 2.168531 1
v 1.8510885 3 2.019215 1
v 2 3 2 1
v 1.5001625 3 2.25 1
v 2 3.382683 2.076121 1
v 2 3.707106 2.292894 1
v 2 3.831469 2.44443 1
v 2 3.55557 2.168531 1
v 2 3.923879 2.617317 1
v 2 3.980785 2.80491 1
v 1.5001625 3.146318 2.264411 1
v 1.500163 3.287013 2.30709 1
v 1.5001625 3.416678 2.376398 1
v 1.5001625 3.53033 2.46967 1
v 1.5001625 3.623602 2.583322 1
v 1.500163 3.69291 2.712987 1
v 1.5001625 3.735589 2.853682 1
f 238 204 239 235 237 236
f 213 241 242 205 243 240
f 244 247 207 206
f 245 246 211 208
f 203 209 205 242
f 249 210 212 248
f 244 206 209 203
f 245 208 207 247
f 248 212 211 246
f 239 204 210 249
f 243 205 209 250
f 250 209 206 251
f 251 206 207 252
f 207 208 253 252
f 253 208 211 254
f 254 211 212 255
f 255 212 210 256
f 256 210 204 238
f 203 242 241 216
f 250 214 240 243
f 213 240 214 215
f 241 213 215 216
f 251 217 214 250
f 215 214 217 218
f 216 215 218 219
f 203 216 219 244
f 252 220 217 251
f 218 217 220 221
f 219 218 221 222
f 219 222 247 244
f 253 223 220 252
f 221 220 223 224
f 222 221 224 225
f 222 225 245 247
f 254 226 223 253
f 224 223 226 227
f 225 224 227 228
f 245 225 228 246
f 227 226 229 230
f 228 227 230 231
f 246 228 231 248
f 255 229 226 254
f 256 232 229 255
f 230 229 232 233
f 231 230 233 234
f 248 231 234 249
f 234 233 237 235
f 249 234 235 239
f 238 236 232 256
f 237 233 232 236
o cube
v 3 4 3 1
v 3 3 3 1
v 4 3 3 1
v 4 4 3 1
v 3 4 2 1
v 3 3 2 1
v 4 3 2 1
v 4 4 2 1
f 257 258 259 260
f 264 263 262 261
f 260 259 263 264
f 261 257 260 264
f 261 262 258 257
f 258 262 263 259
o cube
v 2 3 3 1
v 2 2 3 1
v 3 2 3 1
v 3 3 3 1
v 2 3 2 1
v 2 2 2 1
v 3 2 2 1
v 3 3 2 1
f 265 266 267 268
f 272 271 270 269
f 268 267 271 272
f 269 265 268 272
f 269 270 266 265
f 266 270 271 267
o edge-rounded-empty-sphere-4
v 2 3.980785 3.19509 1
v 2 3 3.75 1
v 2 3.75 3 1
v 2 3.69291 3.287013 1
v 2 3.623602 3.416678 1
v 2 3.53033 3.53033 1
v 2 3.735589 3.146318 1
v 2 3.146318 3.735589 1
v 2 3.416678 3.623602 1
v 2 3.287013 3.69291 1
v 1.7078995 3.923879 3 1
v 1.5759355 3.815493 3.162212 1
v 1.7078995 3.906127 3.18024 1
v 1.8510885 3.96194 3.191342 1
v 1.5759355 3.768178 3.31819 1
v 1.7078995 3.853553 3.353553 1
v 1.8510885 3.906127 3.37533 1
v 1.5759355 3.691341 3.46194 1
v 1.7078995 3.768178 3.51328 1
v 1.8510885 3.815493 3.544895 1
v 1.5759355 3.587938 3.587938 1
v 1.7078995 3.653281 3.653281 1
v 1.8510885 3.69352 3.69352 1
v 1.5759355 3.46194 3.691341 1
v 1.7078995 3.51328 3.768178 1
v 1.8510885 3.544895 3.815493 1
v 1.5759355 3.318189 3.768177 1
v 1.7078995 3.353553 3.853553 1
v 1.8510885 3.37533 3.906127 1
v 1.5759355 3.162212 3.815493 1
v 1.7078995 3.18024 3.906127 1
v 1.8510885 3.191342 3.961939 1
v 1.8510885 3 3.980785 1
v 1.5759355 3 3.831469 1
v 1.7078995 3 3.923879 1
v 1.5001625 3 3.75 1
v 2 3 3.999999 1
v 1.5759355 3.831469 3 1
v 1.8510885 3.980785 3 1
v 2 4 3 1
v 1.5001625 3.75 3 1
v 2 3.923879 3.382683 1
v 2 3.707106 3.707106 1
v 2 3.55557 3.831469 1
v 2 3.831469 3.55557 1
v 2 3.382683 3.923879 1
v 2 3.19509 3.980785 1
v 1.5001625 3.735589 3.146318 1
v 1.500163 3.69291 3.287013 1
v 1.5001625 3.623602 3.416678 1
v 1.5001625 3.53033 3.53033 1
v 1.5001625 3.416678 3.623602 1
v 1.500163 3.287013 3.69291 1
v 1.5001625 3.146318 3.735589 1
f 308 274 309 305 307 306
f 283 311 312 275 313 310
f 314 317 277 276
f 315 316 281 278
f 273 279 275 312
f 319 280 282 318
f 314 276 279 273
f 315 278 277 317
f 318 282 281 316
f 309 274 280 319
f 313 275 279 320
f 320 279 276 321
f 321 276 277 322
f 277 278 323 322
f 323 278 281 324
f 324 281 282 325
f 325 282 280 326
f 326 280 274 308
f 273 312 311 286
f 320 284 310 313
f 283 310 284 285
f 311 283 285 286
f 321 287 284 320
f 285 284 287 288
f 286 285 288 289
f 273 286 289 314
f 322 290 287 321
f 288 287 290 291
f 289 288 291 292
f 289 292 317 314
f 323 293 290 322
f 291 290 293 294
f 292 291 294 295
f 292 295 315 317
f 324 296 293 323
f 294 293 296 297
f 295 294 297 298
f 315 295 298 316
f 297 296 299 300
f 298 297 300 301
f 316 298 301 318
f 325 299 296 324
f 326 302 299 325
f 300 299 302 303
f 301 300 303 304
f 318 301 304 319
f 304 303 307 305
f 319 304 305 309
f 308 306 302 326
f 307 303 302 306
o edge-rounded-empty-sphere-4
v 3.980785 4 3.19509 1
v 3 4 3.75 1
v 3.75 4 3 1
v 3.69291 4 3.287013 1
v 3.623602 4 3.416678 1
v 3.53033 4 3.53033 1
v 3.735589 4 3.146318 1
v 3.146318 4 3.735589 1
v 3.416678 4 3.623602 1
v 3.287013 4 3.69291 1
v 3.923879 4.2921005 3 1
v 3.815493 4.4240645 3.162212 1
v 3.906127 4.2921005 3.18024 1
v 3.96194 4.1489115 3.191342 1
v 3.768178 4.4240645 3.31819 1
v 3.853553 4.2921005 3.353553 1
v 3.906127 4.1489115 3.37533 1
v 3.691341 4.4240645 3.46194 1
v 3.768178 4.2921005 3.51328 1
v 3.815493 4.1489115 3.544895 1
v 3.587938 4.4240645 3.587938 1
v 3.653281 4.2921005 3.653281 1
v 3.69352 4.1489115 3.69352 1
v 3.46194 4.4240645 3.691341 1
v 3.51328 4.2921005 3.768178 1
v 3.544895 4.1489115 3.815493 1
v 3.318189 4.4240645 3.768177 1
v 3.353553 4.2921005 3.853553 1
v 3.37533 4.1489115 3.906127 1
v 3.162212 4.4240645 3.815493 1
v 3.18024 4.2921005 3.906127 1
v 3.191342 4.1489115 3.961939 1
v 3 4.1489115 3.980785 1
v 3 4.4240645 3.831469 1
v 3 4.2921005 3.923879 1
v 3 4.4998375 3.75 1
v 3 4 3.999999 1
v 3.831469 4.4240645 3 1
v 3.980785 4.1489115 3 1
v 4 4 3 1
v 3.75 4.4998375 3 1
v 3.923879 4 3.382683 1
v 3.707106 4 3.707106 1
v 3.55557 4 3.831469 1
v 3.831469 4 3.55557 1
v 3.382683 4 3.923879 1
v 3.19509 4 3.980785 1
v 3.735589 4.4998375 3.146318 1
v 3.69291 4.499837 3.287013 1
v 3.623602 4.4998375 3.416678 1
v 3.53033 4.4998375 3.53033 1
v 3.416678 4.4998375 3.623602 1
v 3.287013 4.499837 3.69291 1
v 3.146318 4.4998375 3.735589 1
f 362 328 363 359 361 360
f 337 365 366 329 367 364
f 368 371 331 330
f 369 370 335 332
f 327 333 329 366
f 373 334 336 372
f 368 330 333 327
f 369 332 331 371
f 372 336 335 370
f 363 328 334 373
f 367 329 333 374
f 374 333 330 375
f 375 330 331 376
f 331 332 377 376
f 377 332 335 378
f 378 335 336 379
f 379 336 334 380
f 380 334 328 362
f 327 366 365 340
f 374 338 364 367
f 337 364 338 339
f 365 337 339 340
f 375 341 338 374
f 339 338 341 342
f 340 339 342 343
f 327 340 343 368
f 376 344 341 375
f 342 341 344 345
f 343 342 345 346
f 343 346 371 368
f 377 347 344 376
f 345 344 347 348
f 346 345 348 349
f 346 349 369 371
f 378 350 347 377
f 348 347 350 351
f 349 348 351 352
f 369 349 352 370
f 351 350 353 354
f 352 351 354 355
f 370 352 355 372
f 379 353 350 378
f 380 356 353 379
f 354 353 356 357
f 355 354 357 358
f 372 355 358 373
f 358 357 361 359
f 373 358 359 363
f 362 360 356 380
f 361 357 356 360
o edge-rounded-empty-sphere-4
v 2.019215 2.80491 2 1
v 3 2.25 2 1
v 2.25 3 2 1
v 2.30709 2.712987 2 1
v 2.376398 2.583322 2 1
v 2.46967 2.46967 2 1
v 2.264411 2.853682 2 1
v 2.853682 2.264411 2 1
v 2.583322 2.376398 2 1
v 2.712987 2.30709 2 1
v 2.076121 3 1.7078995 1
v 2.184507 2.837788 1.5759355 1
v 2.093873 2.81976 1.7078995 1
v 2.03806 2.808658 1.8510885 1
v 2.231822 2.68181 1.5759355 1
v 2.146447 2.646447 1.7078995 1
v 2.093873 2.62467 1.8510885 1
v 2.308659 2.53806 1.5759355 1
v 2.231822 2.48672 1.7078995 1
v 2.184507 2.455105 1.8510885 1
v 2.412062 2.412062 1.5759355 1
v 2.346719 2.346719 1.7078995 1
v 2.30648 2.30648 1.8510885 1
v 2.53806 2.308659 1.5759355 1
v 2.48672 2.231822 1.7078995 1
v 2.455105 2.184507 1.8510885 1
v 2.681811 2.231823 1.5759355 1
v 2.646447 2.146447 1.7078995 1
v 2.62467 2.093873 1.8510885 1
v 2.837788 2.184507 1.5759355 1
v 2.81976 2.093873 1.7078995 1
v 2.808658 2.038061 1.8510885 1
v 3 2.019215 1.8510885 1
v 3 2.168531 1.5759355 1
v 3 2.076121 1.7078995 1
v 3 2.25 1.5001625 1
v 3 2.000001 2 1
v 2.168531 3 1.5759355 1
v 2.019215 3 1.8510885 1
v 2 3 2 1
v 2.25 3 1.5001625 1
v 2.076121 2.617317 2 1
v 2.292894 2.292894 2 1
v 2.44443 2.168531 2 1
v 2.168531 2.44443 2 1
v 2.617317 2.076121 2 1
v 2.80491 2.019215 2 1
v 2.264411 2.853682 1.5001625 1
v 2.30709 2.712987 1.500163 1
v 2.376398 2.583322 1.5001625 1
v 2.46967 2.46967 1.5001625 1
v 2.583322 2.376398 1.5001625 1
v 2.712987 2.30709 1.500163 1
v 2.853682 2.264411 1.5001625 1
f 416 382 417 413 415 414
f 391 419 420 383 421 418
f 422 425 385 384
f 423 424 389 386
f 381 387 383 420
f 427 388 390 426
f 422 384 387 381
f 423 386 385 425
f 426 390 389 424
f 417 382 388 427
f 421 383 387 428
f 428 387 384 429
f 429 384 385 430
f 385 386 431 430
f 431 386 389 432
f 432 389 390 433
f 433 390 388 434
f 434 388 382 416
f 381 420 419 394
f 428 392 418 421
f 391 418 392 393
f 419 391 393 394
f 429 395 392 428
f 393 392 395 396
f 394 393 396 397
f 381 394 397 422
f 430 398 395 429
f 396 395 398 399
f 397 396 399 400
f 397 400 425 422
f 431 401 398 430
f 399 398 401 402
f 400 399 402 403
f 400 403 423 425
f 432 404 401 431
f 402 401 404 405
f 403 402 405 406
f 423 403 406 424
f 405 404 407 408
f 406 405 408 409
f 424 406 409 426
f 433 407 404 432
f 434 410 407 433
f 408 407 410 411
f 409 408 411 412
f 426 409 412 427
f 412 411 415 413
f 427 412 413 417
f 416 414 410 434
f 415 411 410 414
o edge-rounded-empty-sphere-4
v 2 2.019215 2.80491 1
v 2 3 2.25 1
v 2 2.25 3 1
v 2 2.30709 2.712987 1
v 2 2.376398 2.583322 1
v 2 2.46967 2.46967 1
v 2 2.264411 2.853682 1
v 2 2.853682 2.264411 1
v 2 2.583322 2.376398 1
v 2 2.712987 2.30709 1
v 1.7078995 2.076121 3 1
v 1.5759355 2.184507 2.837788 1
v 1.7078995 2.093873 2.81976 1
v 1.8510885 2.03806 2.808658 1
v 1.5759355 2.231822 2.68181 1
v 1.7078995 2.146447 2.646447 1
v 1.8510885 2.093873 2.62467 1
v 1.5759355 2.308659 2.53806 1
v 1.7078995 2.231822 2.48672 1
v 1.8510885 2.184507 2.455105 1
v 1.5759355 2.412062 2.412062 1
v 1.7078995 2.346719 2.346719 1
v 1.8510885 2.30648 2.30648 1
v 1.5759355 2.53806 2.308659 1
v 1.7078995 2.48672 2.231822 1
v 1.8510885 2.455105 2.184507 1
v 1.5759355 2.681811 2.231823 1
v 1.7078995 2.646447 2.146447 1
v 1.8510885 2.62467 2.093873 1
v 1.5759355 2.837788 2.184507 1
v 1.7078995 2.81976 2.093873 1
v 1.8510885 2.808658 2.038061 1
v 1.8510885 3 2.019215 1
v 1.5759355 3 2.168531 1
v 1.7078995 3 2.076121 1
v 1.5001625 3 2.25 1
v 2 3 2.000001 1
v 1.5759355 2.168531 3 1
v 1.8510885 2.019215 3 1
v 2 2 3 1
v 1.5001625 2.25 3 1
v 2 2.076121 2.617317 1
v 2 2.292894 2.292894 1
v 2 2.44443 2.168531 1
v 2 2.168531 2.44443 1
v 2 2.617317 2.076121 1
v 2 2.80491 2.019215 1
v 1.5001625 2.264411 2.853682 1
v 1.500163 2.30709 2.712987 1
v 1.5001625 2.376398 2.583322 1
v 1.5001625 2.46967 2.46967 1
v 1.5001625 2.583322 2.376398 1
v 1.500163 2.712987 2.30709 1
v 1.5001625 2.853682 2.264411 1
f 470 436 471 467 469 468
f 445 473 474 437 475 472
f 476 479 439 438
f 477 478 443 440
f 435 441 437 474
f 481 442 444 480
f 476 438 441 435
f 477 440 439 479
f 480 444 443 478
f 471 436 442 481
f 475 437 441 482
f 482 441 438 483
f 483 438 439 484
f 439 440 485 484
f 485 440 443 486
f 486 443 444 487
f 487 444 442 488
f 488 442 436 470
f 435 474 473 448
f 482 446 472 475
f 445 472 446 447
f 473 445 447 448
f 483 449 446 482
f 447 446 449 450
f 448 447 450 451
f 435 448 451 476
f 484 452 449 483
f 450 449 452 453
f 451 450 453 454
f 451 454 479 476
f 485 455 452 484
f 453 452 455 456
f 454 453 456 457
f 454 457 477 479
f 486 458 455 485
f 456 455 458 459
f 457 456 459 460
f 477 457 460 478
f 459 458 461 462
f 460 459 462 463
f 478 460 463 480
f 487 461 458 486
f 488 464 461 487
f 462 461 464 465
f 463 462 465 466
f 480 463 466 481
f 466 465 469 467
f 481 466 467 471
f 470 468 464 488
f 469 465 464 468
o edge-rounded-empty-sphere-4
v 2.019215 2 3.19509 1
v 3 2 3.75 1
v 2.25 2 3 1
v 2.30709 2 3.287013 1
v 2.376398 2 3.416678 1
v 2.46967 2 3.53033 1
v 2.264411 2 3.146318 1
v 2.853682 2 3.735589 1
v 2.583322 2 3.623602 1
v 2.712987 2 3.69291 1
v 2.076121 1.7078995 3 1
v 2.184507 1.5759355 3.162212 1
v 2.093873 1.7078995 3.18024 1
v 2.03806 1.8510885 3.191342 1
v 2.231822 1.5759355 3.31819 1
v 2.146447 1.7078995 3.353553 1
v 2.093873 1.8510885 3.37533 1
v 2.308659 1.5759355 3.46194 1
v 2.231822 1.7078995 3.51328 1
v 2.184507 1.8510885 3.544895 1
v 2.412062 1.5759355 3.587938 1
v 2.346719 1.7078995 3.653281 1
v 2.30648 1.8510885 3.69352 1
v 2.53806 1.5759355 3.691341 1
v 2.48672 1.7078995 3.768178 1
v 2.455105 1.8510885 3.815493 1
v 2.681811 1.5759355 3.768177 1
v 2.646447 1.7078995 3.853553 1
v 2.62467 1.8510885 3.906127 1
v 2.837788 1.5759355 3.815493 1
v 2.81976 1.7078995 3.906127 1
v 2.808658 1.8510885 3.961939 1
v 3 1.8510885 3.980785 1
v 3 1.5759355 3.831469 1
v 3 1.7078995 3.923879 1
v 3 1.5001625 3.75 1
v 3 2 3.999999 1
v 2.168531 1.5759355 3 1
v 2.019215 1.8510885 3 1
v 2 2 3 1
v 2.25 1.5001625 3 1
v 2.076121 2 3.382683 1
v 2.292894 2 3.707106 1
v 2.44443 2 3.831469 1
v 2.168531 2 3.55557 1
v 2.617317 2 3.923879 1
v 2.80491 2 3.980785 1
v 2.264411 1.5001625 3.146318 1
v 2.30709 1.500163 3.287013 1
v 2.376398 1.5001625 3.416678 1
v 2.46967 1.5001625 3.53033 1
v 2.583322 1.5001625 3.623602 1
v 2.712987 1.500163 3.69291 1
v 2.853682 1.5001625 3.735589 1
f 524 490 525 521 523 522
f 499 527 528 491 529 526
f 530 533 493 492
f 531 532 497 494
f 489 495 491 528
f 535 496 498 534
f 530 492 495 489
f 531 494 493 533
f 534 498 497 532
f 525 490 496 535
f 529 491 495 536
f 536 495 492 537
f 537 492 493 538
f 493 494 539 538
f 539 494 497 540
f 540 497 498 541
f 541 498 496 542
f 542 496 490 524
f 489 528 527 502
f 536 500 526 529
f 499 526 500 501
f 527 499 501 502
f 537 503 500 536
f 501 500 503 504
f 502 501 504 505
f 489 502 505 530
f 538 506 503 537
f 504 503 506 507
f 505 504 507 508
f 505 508 533 530
f 539 509 506 538
f 507 506 509 510
f 508 507 510 511
f 508 511 531 533
f 540 512 509 539
f 510 509 512 513
f 511 510 513 514
f 531 511 514 532
f 513 512 515 516
f 514 513 516 517
f 532 514 517 534
f 541 515 512 540
f 542 518 515 541
f 516 515 518 519
f 517 516 519 520
f 534 517 520 535
f 520 519 523 521
f 535 520 521 525
f 524 522 518 542
f 523 519 518 522
o cube
v 1 1 1 1
v 1 0 1 1
v 9 0 1 1
v 9 1 1 1
v 1 1 0 1
v 1 0 0 1
v 9 0 0 1
v 9 1 0 1
f 543 544 545 546
f 550 549 548 547
f 546 545 549 550
f 547 543 546 550
f 547 548 544 543
f 544 548 549 545
o edge-rounded-empty-sphere-4
v 4 2.80491 2.019215 1
v 4 2.25 3 1
v 4 3 2.25 1
v 4 2.712987 2.30709 1
v 4 2.583322 2.376398 1
v 4 2.46967 2.46967 1
v 4 2.853682 2.264411 1
v 4 2.264411 2.853682 1
v 4 2.376398 2.583322 1
v 4 2.30709 2.712987 1
v 4.2921005 3 2.076121 1
v 4.4240645 2.837788 2.184507 1
v 4.2921005 2.81976 2.093873 1
v 4.1489115 2.808658 2.03806 1
v 4.4240645 2.68181 2.231822 1
v 4.2921005 2.646447 2.146447 1
v 4.1489115 2.62467 2.093873 1
v 4.4240645 2.53806 2.308659 1
v 4.2921005 2.48672 2.231822 1
v 4.1489115 2.455105 2.184507 1
v 4.4240645 2.412062 2.412062 1
v 4.2921005 2.346719 2.346719 1
v 4.1489115 2.30648 2.30648 1
v 4.4240645 2.308659 2.53806 1
v 4.2921005 2.231822 2.48672 1
v 4.1489115 2.184507 2.455105 1
v 4.4240645 2.231823 2.681811 1
v 4.2921005 2.146447 2.646447 1
v 4.1489115 2.093873 2.62467 1
v 4.4240645 2.184507 2.837788 1
v 4.2921005 2.093873 2.81976 1
v 4.1489115 2.038061 2.808658 1
v 4.1489115 2.019215 3 1
v 4.4240645 2.168531 3 1
v 4.2921005 2.076121 3 1
v 4.4998375 2.25 3 1
v 4 2.000001 3 1
v 4.4240645 3 2.168531 1
v 4.1489115 3 2.019215 1
v 4 3 2 1
v 4.4998375 3 2.25 1
v 4 2.617317 2.076121 1
v 4 2.292894 2.292894 1
v 4 2.168531 2.44443 1
v 4 2.44443 2.168531 1
v 4 2.076121 2.617317 1
v 4 2.019215 2.80491 1
v 4.4998375 2.853682 2.264411 1
v 4.499837 2.712987 2.30709 1
v 4.4998375 2.583322 2.376398 1
v 4.4998375 2.46967 2.46967 1
v 4.4998375 2.376398 2.583322 1
v 4.499837 2.30709 2.712987 1
v 4.4998375 2.264411 2.853682 1
f 586 552 587 583 585 584
f 561 589 590 553 591 588
f 592 595 555 554
f 593 594 559 556
f 551 557 553 590
f 597 558 560 596
f 592 554 557 551
f 593 556 555 595
f 596 560 559 594
f 587 552 558 597
f 591 553 557 598
f 598 557 554 599
f 599 554 555 600
f 555 556 601 600
f 601 556 559 602
f 602 559 560 603
f 603 560 558 604
f 604 558 552 586
f 551 590 589 564
f 598 562 588 591
f 561 588 562 563
f 589 561 563 564
f 599 565 562 598
f 563 562 565 566
f 564 563 566 567
f 551 564 567 592
f 600 568 565 599
f 566 565 568 569
f 567 566 569 570
f 567 570 595 592
f 601 571 568 600
f 569 568 571 572
f 570 569 572 573
f 570 573 593 595
f 602 574 571 601
f 572 571 574 575
f 573 572 575 576
f 593 573 576 594
f 575 574 577 578
f 576 575 578 579
f 594 576 579 596
f 603 577 574 602
f 604 580 577 603
f 578 577 580 581
f 579 578 581 582
f 596 579 582 597
f 582 581 585 583
f 597 582 583 587
f 586 584 580 604
f 585 581 580 584
o edge-rounded-empty-sphere-4
v 3.980785 2 2.80491 1
v 3 2 2.25 1
v 3.75 2 3 1
v 3.69291 2 2.712987 1
v 3.623602 2 2.583322 1
v 3.53033 2 2.46967 1
v 3.735589 2 2.853682 1
v 3.146318 2 2.264411 1
v 3.416678 2 2.376398 1
v 3.287013 2 2.30709 1
v 3.923879 1.7078995 3 1
v 3.815493 1.5759355 2.837788 1
v 3.906127 1.7078995 2.81976 1
v 3.96194 1.8510885 2.808658 1
v 3.768178 1.5759355 2.68181 1
v 3.853553 1.7078995 2.646447 1
v 3.906127 1.8510885 2.62467 1
v 3.691341 1.5759355 2.53806 1
v 3.768178 1.7078995 2.48672 1
v 3.815493 1.8510885 2.455105 1
v 3.587938 1.5759355 2.412062 1
v 3.653281 1.7078995 2.346719 1
v 3.69352 1.8510885 2.30648 1
v 3.46194 1.5759355 2.308659 1
v 3.51328 1.7078995 2.231822 1
v 3.544895 1.8510885 2.184507 1
v 3.318189 1.5759355 2.231823 1
v 3.353553 1.7078995 2.146447 1
v 3.37533 1.8510885 2.093873 1
v 3.162212 1.5759355 2.184507 1
v 3.18024 1.7078995 2.093873 1
v 3.191342 1.8510885 2.038061 1
v 3 1.8510885 2.019215 1
v 3 1.5759355 2.168531 1
v 3 1.7078995 2.076121 1
v 3 1.5001625 2.25 1
v 3 2 2.000001 1
v 3.831469 1.5759355 3 1
v 3.980785 1.8510885 3 1
v 4 2 3 1
v 3.75 1.5001625 3 1
v 3.923879 2 2.617317 1
v 3.707106 2 2.292894 1
v 3.55557 2 2.168531 1
v 3.831469 2 2.44443 1
v 3.382683 2 2.076121 1
v 3.19509 2 2.019215 1
v 3.735589 1.5001625 2.853682 1
v 3.69291 1.500163 2.712987 1
v 3.623602 1.5001625 2.583322 1
v 3.53033 1.5001625 2.46967 1
v 3.416678 1.5001625 2.376398 1
v 3.287013 1.500163 2.30709 1
v 3.146318 1.5001625 2.264411 1
f 640 606 641 637 639 638
f 615 643 644 607 645 642
f 646 649 609 608
f 647 648 613 610
f 605 611 607 644
f 651 612 614 650
f 646 608 611 605
f 647 610 609 649
f 650 614 613 648
f 641 606 612 651
f 645 607 611 652
f 652 611 608 653
f 653 608 609 654
f 609 610 655 654
f 655 610 613 656
f 656 613 614 657
f 657 614 612 658
f 658 612 606 640
f 605 644 643 618
f 652 616 642 645
f 615 642 616 617
f 643 615 617 618
f 653 619 616 652
f 617 616 619 620
f 618 617 620 621
f 605 618 621 646
f 654 622 619 653
f 620 619 622 623
f 621 620 623 624
f 621 624 649 646
f 655 625 622 654
f 623 622 625 626
f 624 623 626 627
f 624 627 647 649
f 656 628 625 655
f 626 625 628 629
f 627 626 629 630
f 647 627 630 648
f 629 628 631 632
f 630 629 632 633
f 648 630 633 650
f 657 631 628 656
f 658 634 631 657
f 632 631 634 635
f 633 632 635 636
f 650 633 636 651
f 636 635 639 637
f 651 636 637 641
f 640 638 634 658
f 639 635 634 638
o edge-rounded-empty-sphere-4
v 3.19509 2 3.980785 1
v 3.75 2 3 1
v 3 2 3.75 1
v 3.287013 2 3.69291 1
v 3.416678 2 3.623602 1
v 3.53033 2 3.53033 1
v 3.146318 2 3.735589 1
v 3.735589 2 3.146318 1
v 3.623602 2 3.416678 1
v 3.69291 2 3.287013 1
v 3 1.7078995 3.923879 1
v 3.162212 1.5759355 3.815493 1
v 3.18024 1.7078995 3.906127 1
v 3.191342 1.8510885 3.96194 1
v 3.31819 1.5759355 3.768178 1
v 3.353553 1.7078995 3.853553 1
v 3.37533 1.8510885 3.906127 1
v 3.46194 1.5759355 3.691341 1
v 3.51328 1.7078995 3.768178 1
v 3.544895 1.8510885 3.815493 1
v 3.587938 1.5759355 3.587938 1
v 3.653281 1.7078995 3.653281 1
v 3.69352 1.8510885 3.69352 1
v 3.691341 1.5759355 3.46194 1
v 3.768178 1.7078995 3.51328 1
v 3.815493 1.8510885 3.544895 1
v 3.768177 1.5759355 3.318189 1
v 3.853553 1.7078995 3.353553 1
v 3.906127 1.8510885 3.37533 1
v 3.815493 1.5759355 3.162212 1
v 3.906127 1.7078995 3.18024 1
v 3.961939 1.8510885 3.191342 1
v 3.980785 1.8510885 3 1
v 3.831469 1.5759355 3 1
v 3.923879 1.7078995 3 1
v 3.75 1.5001625 3 1
v 3.999999 2 3 1
v 3 1.5759355 3.831469 1
v 3 1.8510885 3.980785 1
v 3 2 4 1
v 3 1.5001625 3.75 1
v 3.382683 2 3.923879 1
v 3.707106 2 3.707106 1
v 3.831469 2 3.55557 1
v 3.55557 2 3.831469 1
v 3.923879 2 3.382683 1
v 3.980785 2 3.19509 1
v 3.146318 1.5001625 3.735589 1
v 3.287013 1.500163 3.69291 1
v 3.416678 1.5001625 3.623602 1
v 3.53033 1.5001625 3.53033 1
v 3.623602 1.5001625 3.416678 1
v 3.69291 1.500163 3.287013 1
v 3.735589 1.5001625 3.146318 1
f 694 660 695 691 693 692
f 669 697 698 661 699 696
f 700 703 663 662
f 701 702 667 664
f 659 665 661 698
f 705 666 668 704
f 700 662 665 659
f 701 664 663 703
f 704 668 667 702
f 695 660 666 705
f 699 661 665 706
f 706 665 662 707
f 707 662 663 708
f 663 664 709 708
f 709 664 667 710
f 710 667 668 711
f 711 668 666 712
f 712 666 660 694
f 659 698 697 672
f 706 670 696 699
f 669 696 670 671
f 697 669 671 672
f 707 673 670 706
f 671 670 673 674
f 672 671 674 675
f 659 672 675 700
f 708 676 673 707
f 674 673 676 677
f 675 674 677 678
f 675 678 703 700
f 709 679 676 708
f 677 676 679 680
f 678 677 680 681
f 678 681 701 703
f 710 682 679 709
f 680 679 682 683
f 681 680 683 684
f 701 681 684 702
f 683 682 685 686
f 684 683 686 687
f 702 684 687 704
f 711 685 682 710
f 712 688 685 711
f 686 685 688 689
f 687 686 689 690
f 704 687 690 705
f 690 689 693 691
f 705 690 691 695
f 694 692 688 712
f 693 689 688 692
o edge-rounded-empty-sphere-4
v 3.980785 2.80491 4 1
v 3 2.25 4 1
v 3.75 3 4 1
v 3.69291 2.712987 4 1
v 3.623602 2.583322 4 1
v 3.53033 2.46967 4 1
v 3.735589 2.853682 4 1
v 3.146318 2.264411 4 1
v 3.416678 2.376398 4 1
v 3.287013 2.30709 4 1
v 3.923879 3 4.2921005 1
v 3.815493 2.837788 4.4240645 1
v 3.906127 2.81976 4.2921005 1
v 3.96194 2.808658 4.1489115 1
v 3.768178 2.68181 4.4240645 1
v 3.853553 2.646447 4.2921005 1
v 3.906127 2.62467 4.1489115 1
v 3.691341 2.53806 4.4240645 1
v 3.768178 2.48672 4.2921005 1
v 3.815493 2.455105 4.1489115 1
v 3.587938 2.412062 4.4240645 1
v 3.653281 2.346719 4.2921005 1
v 3.69352 2.30648 4.1489115 1
v 3.46194 2.308659 4.4240645 1
v 3.51328 2.231822 4.2921005 1
v 3.544895 2.184507 4.1489115 1
v 3.318189 2.231823 4.4240645 1
v 3.353553 2.146447 4.2921005 1
v 3.37533 2.093873 4.1489115 1
v 3.162212 2.184507 4.4240645 1
v 3.18024 2.093873 4.2921005 1
v 3.191342 2.038061 4.1489115 1
v 3 2.019215 4.1489115 1
v 3 2.168531 4.4240645 1
v 3 2.076121 4.2921005 1
v 3 2.25 4.4998375 1
v 3 2.000001 4 1
v 3.831469 3 4.4240645 1
v 3.980785 3 4.1489115 1
v 4 3 4 1
v 3.75 3 4.4998375 1
v 3.923879 2.617317 4 1
v 3.707106 2.292894 4 1
v 3.55557 2.168531 4 1
v 3.831469 2.44443 4 1
v 3.382683 2.076121 4 1
v 3.19509 2.019215 4 1
v 3.735589 2.853682 4.4998375 1
v 3.69291 2.712987 4.499837 1
v 3.623602 2.583322 4.4998375 1
v 3.53033 2.46967 4.4998375 1
v 3.416678 2.376398 4.4998375 1
v 3.287013 2.30709 4.499837 1
v 3.146318 2.264411 4.4998375 1
f 748 714 749 745 747 746
f 723 751 752 715 753 750
f 754 757 717 716
f 755 756 721 718
f 713 719 715 752
f 759 720 722 758
f 754 716 719 713
f 755 718 717 757
f 758 722 721 756
f 749 714 720 759
f 753 715 719 760
f 760 719 716 761
f 761 716 717 762
f 717 718 763 762
f 763 718 721 764
f 764 721 722 765
f 765 722 720 766
f 766 720 714 748
f 713 752 751 726
f 760 724 750 753
f 723 750 724 725
f 751 723 725 726
f 761 727 724 760
f 725 724 727 728
f 726 725 728 729
f 713 726 729 754
f 762 730 727 761
f 728 727 730 731
f 729 728 731 732
f 729 732 757 754
f 763 733 730 762
f 731 730 733 734
f 732 731 734 735
f 732 735 755 757
f 764 736 733 763
f 734 733 736 737
f 735 734 737 738
f 755 735 738 756
f 737 736 739 740
f 738 737 740 741
f 756 738 741 758
f 765 739 736 764
f 766 742 739 765
f 740 739 742 743
f 741 740 743 744
f 758 741 744 759
f 744 743 747 745
f 759 744 745 749
f 748 746 742 766
f 747 743 742 746
o cube
v 3 4 4 1
v 3 3 4 1
v 4 3 4 1
v 4 4 4 1
v 3 4 3 1
v 3 3 3 1
v 4 3 3 1
v 4 4 3 1
f 767 768 769 770
f 774 773 772 771
f 770 769 773 774
f 771 767 770 774
f 771 772 768 767
f 768 772 773 769
o edge-rounded-empty-sphere-4
v 2.019215 3.19509 4 1
v 3 3.75 4 1
v 2.25 3 4 1
v 2.30709 3.287013 4 1
v 2.376398 3.416678 4 1
v 2.46967 3.53033 4 1
v 2.264411 3.146318 4 1
v 2.853682 3.735589 4 1
v 2.583322 3.623602 4 1
v 2.712987 3.69291 4 1
v 2.076121 3 4.2921005 1
v 2.184507 3.162212 4.4240645 1
v 2.093873 3.18024 4.2921005 1
v 2.03806 3.191342 4.1489115 1
v 2.231822 3.31819 4.4240645 1
v 2.146447 3.353553 4.2921005 1
v 2.093873 3.37533 4.1489115 1
v 2.308659 3.46194 4.4240645 1
v 2.231822 3.51328 4.2921005 1
v 2.184507 3.544895 4.1489115 1
v 2.412062 3.587938 4.4240645 1
v 2.346719 3.653281 4.2921005 1
v 2.30648 3.69352 4.1489115 1
v 2.53806 3.691341 4.4240645 1
v 2.48672 3.768178 4.2921005 1
v 2.455105 3.815493 4.1489115 1
v 2.681811 3.768177 4.4240645 1
v 2.646447 3.853553 4.2921005 1
v 2.62467 3.906127 4.1489115 1
v 2.837788 3.815493 4.4240645 1
v 2.81976 3.906127 4.2921005 1
v 2.808658 3.961939 4.1489115 1
v 3 3.980785 4.1489115 1
v 3 3.831469 4.4240645 1
v 3 3.923879 4.2921005 1
v 3 3.75 4.4998375 1
v 3 3.999999 4 1
v 2.168531 3 4.4240645 1
v 2.019215 3 4.1489115 1
v 2 3 4 1
v 2.25 3 4.4998375 1
v 2.076121 3.382683 4 1
v 2.292894 3.707106 4 1
v 2.44443 3.831469 4 1
v 2.168531 3.55557 4 1
v 2.617317 3.923879 4 1
v 2.80491 3.980785 4 1
v 2.264411 3.146318 4.4998375 1
v 2.30709 3.287013 4.499837 1
v 2.376398 3.416678 4.4998375 1
v 2.46967 3.53033 4.4998375 1
v 2.583322 3.623602 4.4998375 1
v 2.712987 3.69291 4.499837 1
v 2.853682 3.735589 4.4998375 1
f 810 776 811 807 809 808
f 785 813 814 777 815 812
f 816 819 779 778
f 817 818 783 780
f 775 781 777 814
f 821 782 784 820
f 816 778 781 775
f 817 780 779 819
f 820 784 783 818
f 811 776 782 821
f 815 777 781 822
f 822 781 778 823
f 823 778 779 824
f 779 780 825 824
f 825 780 783 826
f 826 783 784 827
f 827 784 782 828
f 828 782 776 810
f 775 814 813 788
f 822 786 812 815
f 785 812 786 787
f 813 785 787 788
f 823 789 786 822
f 787 786 789 790
f 788 787 790 791
f 775 788 791 816
f 824 792 789 823
f 790 789 792 793
f 791 790 793 794
f 791 794 819 816
f 825 795 792 824
f 793 792 795 796
f 794 793 796 797
f 794 797 817 819
f 826 798 795 825
f 796 795 798 799
f 797 796 799 800
f 817 797 800 818
f 799 798 801 802
f 800 799 802 803
f 818 800 803 820
f 827 801 798 826
f 828 804 801 827
f 802 801 804 805
f 803 802 805 806
f 820 803 806 821
f 806 805 809 807
f 821 806 807 811
f 810 808 804 828
f 809 805 804 808
o edge-rounded-empty-sphere-4
v 2.80491 4 3.980785 1
v 2.25 4 3 1
v 3 4 3.75 1
v 2.712987 4 3.69291 1
v 2.583322 4 3.623602 1
v 2.46967 4 3.53033 1
v 2.853682 4 3.735589 1
v 2.264411 4 3.146318 1
v 2.376398 4 3.416678 1
v 2.30709 4 3.287013 1
v 3 4.2921005 3.923879 1
v 2.837788 4.4240645 3.815493 1
v 2.81976 4.2921005 3.906127 1
v 2.808658 4.1489115 3.96194 1
v 2.68181 4.4240645 3.768178 1
v 2.646447 4.2921005 3.853553 1
v 2.62467 4.1489115 3.906127 1
v 2.53806 4.4240645 3.691341 1
v 2.48672 4.2921005 3.768178 1
v 2.455105 4.1489115 3.815493 1
v 2.412062 4.4240645 3.587938 1
v 2.346719 4.2921005 3.653281 1
v 2.30648 4.1489115 3.69352 1
v 2.308659 4.4240645 3.46194 1
v 2.231822 4.2921005 3.51328 1
v 2.184507 4.1489115 3.544895 1
v 2.231823 4.4240645 3.318189 1
v 2.146447 4.2921005 3.353553 1
v 2.093873 4.1489115 3.37533 1
v 2.184507 4.4240645 3.162212 1
v 2.093873 4.2921005 3.18024 1
v 2.038061 4.1489115 3.191342 1
v 2.019215 4.1489115 3 1
v 2.168531 4.4240645 3 1
v 2.076121 4.2921005 3 1
v 2.25 4.4998375 3 1
v 2.000001 4 3 1
v 3 4.4240645 3.831469 1
v 3 4.1489115 3.980785 1
v 3 4 4 1
v 3 4.4998375 3.75 1
v 2.617317 4 3.923879 1
v 2.292894 4 3.707106 1
v 2.168531 4 3.55557 1
v 2.44443 4 3.831469 1
v 2.076121 4 3.382683 1
v 2.019215 4 3.19509 1
v 2.853682 4.4998375 3.735589 1
v 2.712987 4.499837 3.69291 1
v 2.583322 4.4998375 3.623602 1
v 2.46967 4.4998375 3.53033 1
v 2.376398 4.4998375 3.416678 1
v 2.30709 4.499837 3.287013 1
v 2.264411 4.4998375 3.146318 1
f 864 830 865 861 863 862
f 839 867 868 831 869 866
f 870 873 833 832
f 871 872 837 834
f 829 835 831 868
f 875 836 838 874
f 870 832 835 829
f 871 834 833 873
f 874 838 837 872
f 865 830 836 875
f 869 831 835 876
f 876 835 832 877
f 877 832 833 878
f 833 834 879 878
f 879 834 837 880
f 880 837 838 881
f 881 838 836 882
f 882 836 830 864
f 829 868 867 842
f 876 840 866 869
f 839 866 840 841
f 867 839 841 842
f 877 843 840 876
f 841 840 843 844
f 842 841 844 845
f 829 842 845 870
f 878 846 843 877
f 844 843 846 847
f 845 844 847 848
f 845 848 873 870
f 879 849 846 878
f 847 846 849 850
f 848 847 850 851
f 848 851 871 873
f 880 852 849 879
f 850 849 852 853
f 851 850 853 854
f 871 851 854 872
f 853 852 855 856
f 854 853 856 857
f 872 854 857 874
f 881 855 852 880
f 882 858 855 881
f 856 855 858 859
f 857 856 859 860
f 874 857 860 875
f 860 859 863 861
f 875 860 861 865
f 864 862 858 882
f 863 859 858 862
o cube
v 2 3 4 1
v 2 2 4 1
v 3 2 4 1
v 3 3 4 1
v 2 3 3 1
v 2 2 3 1
v 3 2 3 1
v 3 3 3 1
f 883 884 885 886
f 890 889 888 887
f 886 885 889 890
f 887 883 886 890
f 887 888 884 883
f 884 888 889 885
o edge-rounded-empty-sphere-4
v 4 3.980785 2.80491 1
v 4 3 2.25 1
v 4 3.75 3 1
v 4 3.69291 2.712987 1
v 4 3.623602 2.583322 1
v 4 3.53033 2.46967 1
v 4 3.735589 2.853682 1
v 4 3.146318 2.264411 1
v 4 3.416678 2.376398 1
v 4 3.287013 2.30709 1
v 4.2921005 3.923879 3 1
v 4.4240645 3.815493 2.837788 1
v 4.2921005 3.906127 2.81976 1
v 4.1489115 3.96194 2.808658 1
v 4.4240645 3.768178 2.68181 1
v 4.2921005 3.853553 2.646447 1
v 4.1489115 3.906127 2.62467 1
v 4.4240645 3.691341 2.53806 1
v 4.2921005 3.768178 2.48672 1
v 4.1489115 3.815493 2.455105 1
v 4.4240645 3.587938 2.412062 1
v 4.2921005 3.653281 2.346719 1
v 4.1489115 3.69352 2.30648 1
v 4.4240645 3.46194 2.308659 1
v 4.2921005 3.51328 2.231822 1
v 4.1489115 3.544895 2.184507 1
v 4.4240645 3.318189 2.231823 1
v 4.2921005 3.353553 2.146447 1
v 4.1489115 3.37533 2.093873 1
v 4.4240645 3.162212 2.184507 1
v 4.2921005 3.18024 2.093873 1
v 4.1489115 3.191342 2.038061 1
v 4.1489115 3 2.019215 1
v 4.4240645 3 2.168531 1
v 4.2921005 3 2.076121 1
v 4.4998375 3 2.25 1
v 4 3 2.000001 1
v 4.4240645 3.831469 3 1
v 4.1489115 3.980785 3 1
v 4 4 3 1
v 4.4998375 3.75 3 1
v 4 3.923879 2.617317 1
v 4 3.707106 2.292894 1
v 4 3.55557 2.168531 1
v 4 3.831469 2.44443 1
v 4 3.382683 2.076121 1
v 4 3.19509 2.019215 1
v 4.4998375 3.735589 2.853682 1
v 4.499837 3.69291 2.712987 1
v 4.4998375 3.623602 2.583322 1
v 4.4998375 3.53033 2.46967 1
v 4.4998375 3.416678 2.376398 1
v 4.499837 3.287013 2.30709 1
v 4.4998375 3.146318 2.264411 1
f 926 892 927 923 925 924
f 901 929 930 893 931 928
f 932 935 895 894
f 933 934 899 896
f 891 897 893 930
f 937 898 900 936
f 932 894 897 891
f 933 896 895 935
f 936 900 899 934
f 927 892 898 937
f 931 893 897 938
f 938 897 894 939
f 939 894 895 940
f 895 896 941 940
f 941 896 899 942
f 942 899 900 943
f 943 900 898 944
f 944 898 892 926
f 891 930 929 904
f 938 902 928 931
f 901 928 902 903
f 929 901 903 904
f 939 905 902 938
f 903 902 905 906
f 904 903 906 907
f 891 904 907 932
f 940 908 905 939
f 906 905 908 909
f 907 906 909 910
f 907 910 935 932
f 941 911 908 940
f 909 908 911 912
f 910 909 912 913
f 910 913 933 935
f 942 914 911 941
f 912 911 914 915
f 913 912 915 916
f 933 913 916 934
f 915 914 917 918
f 916 915 918 919
f 934 916 919 936
f 943 917 914 942
f 944 920 917 943
f 918 917 920 921
f 919 918 921 922
f 936 919 922 937
f 922 921 925 923
f 937 922 923 927
f 926 924 920 944
f 925 921 920 924
o cube
v 0 9 1 1
v 0 1 1 1
v 1 1 1 1
v 1 9 1 1
v 0 9 0 1
v 0 1 0 1
v 1 1 0 1
v 1 9 0 1
f 945 946 947 948
f 952 951 950 949
f 948 947 951 952
f 949 945 948 952
f 949 950 946 945
f 946 950 951 947
o edge-rounded-empty-sphere-4
v 3.19509 2.019215 2 1
v 3.75 3 2 1
v 3 2.25 2 1
v 3.287013 2.30709 2 1
v 3.416678 2.376398 2 1
v 3.53033 2.46967 2 1
v 3.146318 2.264411 2 1
v 3.735589 2.853682 2 1
v 3.623602 2.583322 2 1
v 3.69291 2.712987 2 1
v 3 2.076121 1.7078995 1
v 3.162212 2.184507 1.5759355 1
v 3.18024 2.093873 1.7078995 1
v 3.191342 2.03806 1.8510885 1
v 3.31819 2.231822 1.5759355 1
v 3.353553 2.146447 1.7078995 1
v 3.37533 2.093873 1.8510885 1
v 3.46194 2.308659 1.5759355 1
v 3.51328 2.231822 1.7078995 1
v 3.544895 2.184507 1.8510885 1
v 3.587938 2.412062 1.5759355 1
v 3.653281 2.346719 1.7078995 1
v 3.69352 2.30648 1.8510885 1
v 3.691341 2.53806 1.5759355 1
v 3.768178 2.48672 1.7078995 1
v 3.815493 2.455105 1.8510885 1
v 3.768177 2.681811 1.5759355 1
v 3.853553 2.646447 1.7078995 1
v 3.906127 2.62467 1.8510885 1
v 3.815493 2.837788 1.5759355 1
v 3.906127 2.81976 1.7078995 1
v 3.961939 2.808658 1.8510885 1
v 3.980785 3 1.8510885 1
v 3.831469 3 1.5759355 1
v 3.923879 3 1.7078995 1
v 3.75 3 1.5001625 1
v 3.999999 3 2 1
v 3 2.168531 1.5759355 1
v 3 2.019215 1.8510885 1
v 3 2 2 1
v 3 2.25 1.5001625 1
v 3.382683 2.076121 2 1
v 3.707106 2.292894 2 1
v 3.831469 2.44443 2 1
v 3.55557 2.168531 2 1
v 3.923879 2.617317 2 1
v 3.980785 2.80491 2 1
v 3.146318 2.264411 1.5001625 1
v 3.287013 2.30709 1.500163 1
v 3.416678 2.376398 1.5001625 1
v 3.53033 2.46967 1.5001625 1
v 3.623602 2.583322 1.5001625 1
v 3.69291 2.712987 1.500163 1
v 3.735589 2.853682 1.5001625 1
f 988 954 989 985 987 986
f 963 991 992 955 993 990
f 994 997 957 956
f 995 996 961 958
f 953 959 955 992
f 999 960 962 998
f 994 956 959 953
f 995 958 957 997
f 998 962 961 996
f 989 954 960 999
f 993 955 959 1000
f 1000 959 956 1001
f 1001 956 957 1002
f 957 958 1003 1002
f 1003 958 961 1004
f 1004 961 962 1005
f 1005 962 960 1006
f 1006 960 954 988
f 953 992 991 966
f 1000 964 990 993
f 963 990 964 965
f 991 963 965 966
f 1001 967 964 1000
f 965 964 967 968
f 966 965 968 969
f 953 966 969 994
f 1002 970 967 1001
f 968 967 970 971
f 969 968 971 972
f 969 972 997 994
f 1003 973 970 1002
f 971 970 973 974
f 972 971 974 975
f 972 975 995 997
f 1004 976 973 1003
f 974 973 976 977
f 975 974 977 978
f 995 975 978 996
f 977 976 979 980
f 978 977 980 981
f 996 978 981 998
f 1005 979 976 1004
f 1006 982 979 1005
f 980 979 982 983
f 981 980 983 984
f 998 981 984 999
f 984 983 987 985
f 999 984 985 989
f 988 986 982 1006
f 987 983 982 986
o edge-rounded-empty-sphere-4
v 2 2.80491 3.980785 1
v 2 2.25 3 1
v 2 3 3.75 1
v 2 2.712987 3.69291 1
v 2 2.583322 3.623602 1
v 2 2.46967 3.53033 1
v 2 2.853682 3.735589 1
v 2 2.264411 3.146318 1
v 2 2.376398 3.416678 1
v 2 2.30709 3.287013 1
v 1.7078995 3 3.923879 1
v 1.5759355 2.837788 3.815493 1
v 1.7078995 2.81976 3.906127 1
v 1.8510885 2.808658 3.96194 1
v 1.5759355 2.68181 3.768178 1
v 1.7078995 2.646447 3.853553 1
v 1.8510885 2.62467 3.906127 1
v 1.5759355 2.53806 3.691341 1
v 1.7078995 2.48672 3.768178 1
v 1.8510885 2.455105 3.815493 1
v 1.5759355 2.412062 3.587938 1
v 1.7078995 2.346719 3.653281 1
v 1.8510885 2.30648 3.69352 1
v 1.5759355 2.308659 3.46194 1
v 1.7078995 2.231822 3.51328 1
v 1.8510885 2.184507 3.544895 1
v 1.5759355 2.231823 3.318189 1
v 1.7078995 2.146447 3.353553 1
v 1.8510885 2.093873 3.37533 1
v 1.5759355 2.184507 3.162212 1
v 1.7078995 2.093873 3.18024 1
v 1.8510885 2.038061 3.191342 1
v 1.8510885 2.019215 3 1
v 1.5759355 2.168531 3 1
v 1.7078995 2.076121 3 1
v 1.5001625 2.25 3 1
v 2 2.000001 3 1
v 1.5759355 3 3.831469 1
v 1.8510885 3 3.980785 1
v 2 3 4 1
v 1.5001625 3 3.75 1
v 2 2.617317 3.923879 1
v 2 2.292894 3.707106 1
v 2 2.168531 3.55557 1
v 2 2.44443 3.831469 1
v 2 2.076121 3.382683 1
v 2 2.019215 3.19509 1
v 1.5001625 2.853682 3.735589 1
v 1.500163 2.712987 3.69291 1
v 1.5001625 2.583322 3.623602 1
v 1.5001625 2.46967 3.53033 1
v 1.5001625 2.376398 3.416678 1
v 1.500163 2.30709 3.287013 1
v 1.5001625 2.264411 3.146318 1
f 1042 1008 1043 1039 1041 1040
f 1017 1045 1046 1009 1047 1044
f 1048 1051 1011 1010
f 1049 1050 1015 1012
f 1007 1013 1009 1046
f 1053 1014 1016 1052
f 1048 1010 1013 1007
f 1049 1012 1011 1051
f 1052 1016 1015 1050
f 1043 1008 1014 1053
f 1047 1009 1013 1054
f 1054 1013 1010 1055
f 1055 1010 1011 1056
f 1011 1012 1057 1056
f 1057 1012 1015 1058
f 1058 1015 1016 1059
f 1059 1016 1014 1060
f 1060 1014 1008 1042
f 1007 1046 1045 1020
f 1054 1018 1044 1047
f 1017 1044 1018 1019
f 1045 1017 1019 1020
f 1055 1021 1018 1054
f 1019 1018 1021 1022
f 1020 1019 1022 1023
f 1007 1020 1023 1048
f 1056 1024 1021 1055
f 1022 1021 1024 1025
f 1023 1022 1025 1026
f 1023 1026 1051 1048
f 1057 1027 1024 1056
f 1025 1024 1027 1028
f 1026 1025 1028 1029
f 1026 1029 1049 1051
f 1058 1030 1027 1057
f 1028 1027 1030 1031
f 1029 1028 1031 1032
f 1049 1029 1032 1050
f 1031 1030 1033 1034
f 1032 1031 1034 1035
f 1050 1032 1035 1052
f 1059 1033 1030 1058
f 1060 1036 1033 1059
f 1034 1033 1036 1037
f 1035 1034 1037 1038
f 1052 1035 1038 1053
f 1038 1037 1041 1039
f 1053 1038 1039 1043
f 1042 1040 1036 1060
f 1041 1037 1036 1040
o edge-rounded-empty-sphere-4
v 3.19509 4 2.019215 1
v 3.75 4 3 1
v 3 4 2.25 1
v 3.287013 4 2.30709 1
v 3.416678 4 2.376398 1
v 3.53033 4 2.46967 1
v 3.146318 4 2.264411 1
v 3.735589 4 2.853682 1
v 3.623602 4 2.583322 1
v 3.69291 4 2.712987 1
v 3 4.2921005 2.076121 1
v 3.162212 4.4240645 2.184507 1
v 3.18024 4.2921005 2.093873 1
v 3.191342 4.1489115 2.03806 1
v 3.31819 4.4240645 2.231822 1
v 3.353553 4.2921005 2.146447 1
v 3.37533 4.1489115 2.093873 1
v 3.46194 4.4240645 2.308659 1
v 3.51328 4.2921005 2.231822 1
v 3.544895 4.1489115 2.184507 1
v 3.587938 4.4240645 2.412062 1
v 3.653281 4.2921005 2.346719 1
v 3.69352 4.1489115 2.30648 1
v 3.691341 4.4240645 2.53806 1
v 3.768178 4.2921005 2.48672 1
v 3.815493 4.1489115 2.455105 1
v 3.768177 4.4240645 2.681811 1
v 3.853553 4.2921005 2.646447 1
v 3.906127 4.1489115 2.62467 1
v 3.815493 4.4240645 2.837788 1
v 3.906127 4.2921005 2.81976 1
v 3.961939 4.1489115 2.808658 1
v 3.980785 4.1489115 3 1
v 3.831469 4.4240645 3 1
v 3.923879 4.2921005 3 1
v 3.75 4.4998375 3 1
v 3.999999 4 3 1
v 3 4.4240645 2.168531 1
v 3 4.1489115 2.019215 1
v 3 4 2 1
v 3 4.4998375 2.25 1
v 3.382683 4 2.076121 1
v 3.707106 4 2.292894 1
v 3.831469 4 2.44443 1
v 3.55557 4 2.168531 1
v 3.923879 4 2.617317 1
v 3.980785 4 2.80491 1
v 3.146318 4.4998375 2.264411 1
v 3.287013 4.499837 2.30709 1
v 3.416678 4.4998375 2.376398 1
v 3.53033 4.4998375 2.46967 1
v 3.623602 4.4998375 2.583322 1
v 3.69291 4.499837 2.712987 1
v 3.735589 4.4998375 2.853682 1
f 1096 1062 1097 1093 1095 1094
f 1071 1099 1100 1063 1101 1098
f 1102 1105 1065 1064
f 1103 1104 1069 1066
f 1061 1067 1063 1100
f 1107 1068 1070 1106
f 1102 1064 1067 1061
f 1103 1066 1065 1105
f 1106 1070 1069 1104
f 1097 1062 1068 1107
f 1101 1063 1067 1108
f 1108 1067 1064 1109
f 1109 1064 1065 1110
f 1065 1066 1111 1110
f 1111 1066 1069 1112
f 1112 1069 1070 1113
f 1113 1070 1068 1114
f 1114 1068 1062 1096
f 1061 1100 1099 1074
f 1108 1072 1098 1101
f 1071 1098 1072 1073
f 1099 1071 1073 1074
f 1109 1075 1072 1108
f 1073 1072 1075 1076
f 1074 1073 1076 1077
f 1061 1074 1077 1102
f 1110 1078 1075 1109
f 1076 1075 1078 1079
f 1077 1076 1079 1080
f 1077 1080 1105 1102
f 1111 1081 1078 1110
f 1079 1078 1081 1082
f 1080 1079 1082 1083
f 1080 1083 1103 1105
f 1112 1084 1081 1111
f 1082 1081 1084 1085
f 1083 1082 1085 1086
f 1103 1083 1086 1104
f 1085 1084 1087 1088
f 1086 1085 1088 1089
f 1104 1086 1089 1106
f 1113 1087 1084 1112
f 1114 1090 1087 1113
f 1088 1087 1090 1091
f 1089 1088 1091 1092
f 1106 1089 1092 1107
f 1092 1091 1095 1093
f 1107 1092 1093 1097
f 1096 1094 1090 1114
f 1095 1091 1090 1094
o edge-rounded-empty-sphere-4
v 3.980785 3.19509 2 1
v 3 3.75 2 1
v 3.75 3 2 1
v 3.69291 3.287013 2 1
v 3.623602 3.416678 2 1
v 3.53033 3.53033 2 1
v 3.735589 3.146318 2 1
v 3.146318 3.735589 2 1
v 3.416678 3.623602 2 1
v 3.287013 3.69291 2 1
v 3.923879 3 1.7078995 1
v 3.815493 3.162212 1.5759355 1
v 3.906127 3.18024 1.7078995 1
v 3.96194 3.191342 1.8510885 1
v 3.768178 3.31819 1.5759355 1
v 3.853553 3.353553 1.7078995 1
v 3.906127 3.37533 1.8510885 1
v 3.691341 3.46194 1.5759355 1
v 3.768178 3.51328 1.7078995 1
v 3.815493 3.544895 1.8510885 1
v 3.587938 3.587938 1.5759355 1
v 3.653281 3.653281 1.7078995 1
v 3.69352 3.69352 1.8510885 1
v 3.46194 3.691341 1.5759355 1
v 3.51328 3.768178 1.7078995 1
v 3.544895 3.815493 1.8510885 1
v 3.318189 3.768177 1.5759355 1
v 3.353553 3.853553 1.7078995 1
v 3.37533 3.906127 1.8510885 1
v 3.162212 3.815493 1.5759355 1
v 3.18024 3.906127 1.7078995 1
v 3.191342 3.961939 1.8510885 1
v 3 3.980785 1.8510885 1
v 3 3.831469 1.5759355 1
v 3 3.923879 1.7078995 1
v 3 3.75 1.5001625 1
v 3 3.999999 2 1
v 3.831469 3 1.5759355 1
v 3.980785 3 1.8510885 1
v 4 3 2 1
v 3.75 3 1.5001625 1
v 3.923879 3.382683 2 1
v 3.707106 3.707106 2 1
v 3.55557 3.831469 2 1
v 3.831469 3.55557 2 1
v 3.382683 3.923879 2 1
v 3.19509 3.980785 2 1
v 3.735589 3.146318 1.5001625 1
v 3.69291 3.287013 1.500163 1
v 3.623602 3.416678 1.5001625 1
v 3.53033 3.53033 1.5001625 1
v 3.416678 3.623602 1.5001625 1
v 3.287013 3.69291 1.500163 1
v 3.146318 3.735589 1.5001625 1
f 1150 1116 1151 1147 1149 1148
f 1125 1153 1154 1117 1155 1152
f 1156 1159 1119 1118
f 1157 1158 1123 1120
f 1115 1121 1117 1154
f 1161 1122 1124 1160
f 1156 1118 1121 1115
f 1157 1120 1119 1159
f 1160 1124 1123 1158
f 1151 1116 1122 1161
f 1155 1117 1121 1162
f 1162 1121 1118 1163
f 1163 1118 1119 1164
f 1119 1120 1165 1164
f 1165 1120 1123 1166
f 1166 1123 1124 1167
f 1167 1124 1122 1168
f 1168 1122 1116 1150
f 1115 1154 1153 1128
f 1162 1126 1152 1155
f 1125 1152 1126 1127
f 1153 1125 1127 1128
f 1163 1129 1126 1162
f 1127 1126 1129 1130
f 1128 1127 1130 1131
f 1115 1128 1131 1156
f 1164 1132 1129 1163
f 1130 1129 1132 1133
f 1131 1130 1133 1134
f 1131 1134 1159 1156
f 1165 1135 1132 1164
f 1133 1132 1135 1136
f 1134 1133 1136 1137
f 1134 1137 1157 1159
f 1166 1138 1135 1165
f 1136 1135 1138 1139
f 1137 1136 1139 1140
f 1157 1137 1140 1158
f 1139 1138 1141 1142
f 1140 1139 1142 1143
f 1158 1140 1143 1160
f 1167 1141 1138 1166
f 1168 1144 1141 1167
f 1142 1141 1144 1145
f 1143 1142 1145 1146
f 1160 1143 1146 1161
f 1146 1145 1149 1147
f 1161 1146 1147 1151
f 1150 1148 1144 1168
f 1149 1145 1144 1148
o edge-rounded-empty-sphere-4
v 2.80491 2 2.019215 1
v 2.25 2 3 1
v 3 2 2.25 1
v 2.712987 2 2.30709 1
v 2.583322 2 2.376398 1
v 2.46967 2 2.46967 1
v 2.853682 2 2.264411 1
v 2.264411 2 2.853682 1
v 2.376398 2 2.583322 1
v 2.30709 2 2.712987 1
v 3 1.7078995 2.076121 1
v 2.837788 1.5759355 2.184507 1
v 2.81976 1.7078995 2.093873 1
v 2.808658 1.8510885 2.03806 1
v 2.68181 1.5759355 2.231822 1
v 2.646447 1.7078995 2.146447 1
v 2.62467 1.8510885 2.093873 1
v 2.53806 1.5759355 2.308659 1
v 2.48672 1.7078995 2.231822 1
v 2.455105 1.8510885 2.184507 1
v 2.412062 1.5759355 2.412062 1
v 2.346719 1.7078995 2.346719 1
v 2.30648 1.8510885 2.30648 1
v 2.308659 1.5759355 2.53806 1
v 2.231822 1.7078995 2.48672 1
v 2.184507 1.8510885 2.455105 1
v 2.231823 1.5759355 2.681811 1
v 2.146447 1.7078995 2.646447 1
v 2.093873 1.8510885 2.62467 1
v 2.184507 1.5759355 2.837788 1
v 2.093873 1.7078995 2.81976 1
v 2.038061 1.8510885 2.808658 1
v 2.019215 1.8510885 3 1
v 2.168531 1.5759355 3 1
v 2.076121 1.7078995 3 1
v 2.25 1.5001625 3 1
v 2.000001 2 3 1
v 3 1.5759355 2.168531 1
v 3 1.8510885 2.019215 1
v 3 2 2 1
v 3 1.5001625 2.25 1
v 2.617317 2 2.076121 1
v 2.292894 2 2.292894 1
v 2.168531 2 2.44443 1
v 2.44443 2 2.168531 1
v 2.076121 2 2.617317 1
v 2.019215 2 2.80491 1
v 2.853682 1.5001625 2.264411 1
v 2.712987 1.500163 2.30709 1
v 2.583322 1.5001625 2.376398 1
v 2.46967 1.5001625 2.46967 1
v 2.376398 1.5001625 2.583322 1
v 2.30709 1.500163 2.712987 1
v 2.264411 1.5001625 2.853682 1
f 1204 1170 1205 1201 1203 1202
f 1179 1207 1208 1171 1209 1206
f 1210 1213 1173 1172
f 1211 1212 1177 1174
f 1169 1175 1171 1208
f 1215 1176 1178 1214
f 1210 1172 1175 1169
f 1211 1174 1173 1213
f 1214 1178 1177 1212
f 1205 1170 1176 1215
f 1209 1171 1175 1216
f 1216 1175 1172 1217
f 1217 1172 1173 1218
f 1173 1174 1219 1218
f 1219 1174 1177 1220
f 1220 1177 1178 1221
f 1221 1178 1176 1222
f 1222 1176 1170 1204
f 1169 1208 1207 1182
f 1216 1180 1206 1209
f 1179 1206 1180 1181
f 1207 1179 1181 1182
f 1217 1183 1180 1216
f 1181 1180 1183 1184
f 1182 1181 1184 1185
f 1169 1182 1185 1210
f 1218 1186 1183 1217
f 1184 1183 1186 1187
f 1185 1184 1187 1188
f 1185 1188 1213 1210
f 1219 1189 1186 1218
f 1187 1186 1189 1190
f 1188 1187 1190 1191
f 1188 1191 1211 1213
f 1220 1192 1189 1219
f 1190 1189 1192 1193
f 1191 1190 1193 1194
f 1211 1191 1194 1212
f 1193 1192 1195 1196
f 1194 1193 1196 1197
f 1212 1194 1197 1214
f 1221 1195 1192 1220
f 1222 1198 1195 1221
f 1196 1195 1198 1199
f 1197 1196 1199 1200
f 1214 1197 1200 1215
f 1200 1199 1203 1201
f 1215 1200 1201 1205
f 1204 1202 1198 1222
f 1203 1199 1198 1202
o cube
v 2 4 3 1
v 2 3 3 1
v 3 3 3 1
v 3 4 3 1
v 2 4 2 1
v 2 3 2 1
v 3 3 2 1
v 3 4 2 1
f 1223 1224 1225 1226
f 1230 1229 1228 1227
f 1226 1225 1229 1230
f 1227 1223 1226 1230
f 1227 1228 1224 1223
f 1224 1228 1229 1225
o edge-rounded-empty-sphere-4
v 2.80491 3.980785 2 1
v 2.25 3 2 1
v 3 3.75 2 1
v 2.712987 3.69291 2 1
v 2.583322 3.623602 2 1
v 2.46967 3.53033 2 1
v 2.853682 3.735589 2 1
v 2.264411 3.146318 2 1
v 2.376398 3.416678 2 1
v 2.30709 3.287013 2 1
v 3 3.923879 1.7078995 1
v 2.837788 3.815493 1.5759355 1
v 2.81976 3.906127 1.7078995 1
v 2.808658 3.96194 1.8510885 1
v 2.68181 3.768178 1.5759355 1
v 2.646447 3.853553 1.7078995 1
v 2.62467 3.906127 1.8510885 1
v 2.53806 3.691341 1.5759355 1
v 2.48672 3.768178 1.7078995 1
v 2.455105 3.815493 1.8510885 1
v 2.412062 3.587938 1.5759355 1
v 2.346719 3.653281 1.7078995 1
v 2.30648 3.69352 1.8510885 1
v 2.308659 3.46194 1.5759355 1
v 2.231822 3.51328 1.7078995 1
v 2.184507 3.544895 1.8510885 1
v 2.231823 3.318189 1.5759355 1
v 2.146447 3.353553 1.7078995 1
v 2.093873 3.37533 1.8510885 1
v 2.184507 3.162212 1.5759355 1
v 2.093873 3.18024 1.7078995 1
v 2.038061 3.191342 1.8510885 1
v 2.019215 3 1.8510885 1
v 2.168531 3 1.5759355 1
v 2.076121 3 1.7078995 1
v 2.25 3 1.5001625 1
v 2.000001 3 2 1
v 3 3.831469 1.5759355 1
v 3 3.980785 1.8510885 1
v 3 4 2 1
v 3 3.75 1.5001625 1
v 2.617317 3.923879 2 1
v 2.292894 3.707106 2 1
v 2.168531 3.55557 2 1
v 2.44443 3.831469 2 1
v 2.076121 3.382683 2 1
v 2.019215 3.19509 2 1
v 2.853682 3.735589 1.5001625 1
v 2.712987 3.69291 1.500163 1
v 2.583322 3.623602 1.5001625 1
v 2.46967 3.53033 1.5001625 1
v 2.376398 3.416678 1.5001625 1
v 2.30709 3.287013 1.500163 1
v 2.264411 3.146318 1.5001625 1
f 1266 1232 1267 1263 1265 1264
f 1241 1269 1270 1233 1271 1268
f 1272 1275 1235 1234
f 1273 1274 1239 1236
f 1231 1237 1233 1270
f 1277 1238 1240 1276
f 1272 1234 1237 1231
f 1273 1236 1235 1275
f 1276 1240 1239 1274
f 1267 1232 1238 1277
f 1271 1233 1237 1278
f 1278 1237 1234 1279
f 1279 1234 1235 1280
f 1235 1236 1281 1280
f 1281 1236 1239 1282
f 1282 1239 1240 1283
f 1283 1240 1238 1284
f 1284 1238 1232 1266
f 1231 1270 1269 1244
f 1278 1242 1268 1271
f 1241 1268 1242 1243
f 1269 1241 1243 1244
f 1279 1245 1242 1278
f 1243 1242 1245 1246
f 1244 1243 1246 1247
f 1231 1244 1247 1272
f 1280 1248 1245 1279
f 1246 1245 1248 1249
f 1247 1246 1249 1250
f 1247 1250 1275 1272
f 1281 1251 1248 1280
f 1249 1248 1251 1252
f 1250 1249 1252 1253
f 1250 1253 1273 1275
f 1282 1254 1251 1281
f 1252 1251 1254 1255
f 1253 1252 1255 1256
f 1273 1253 1256 1274
f 1255 1254 1257 1258
f 1256 1255 1258 1259
f 1274 1256 1259 1276
f 1283 1257 1254 1282
f 1284 1260 1257 1283
f 1258 1257 1260 1261
f 1259 1258 1261 1262
f 1276 1259 1262 1277
f 1262 1261 1265 1263
f 1277 1262 1263 1267
f 1266 1264 1260 1284
f 1265 1261 1260 1264
o cube
v 0 0 1 1
v 0 -2 1 1
v 1 -2 1 1
v 1 0 1 1
v 0 0 0 1
v 0 -2 0 1
v 1 -2 0 1
v 1 0 0 1
f 1285 1286 1287 1288
f 1292 1291 1290 1289
f 1288 1287 1291 1292
f 1289 1285 1288 1292
f 1289 1290 1286 1285
f 1286 1290 1291 1287
o cube
v 0 1 0 1
v 0 0 0 1
v 1 0 0 1
v 1 1 0 1
v 0 1 -2 1
v 0 0 -2 1
v 1 0 -2 1
v 1 1 -2 1
f 1293 1294 1295 1296
f 1300 1299 1298 1297
f 1296 1295 1299 1300
f 1297 1293 1296 1300
f 1297 1298 1294 1293
f 1294 1298 1299 1295
o edge-rounded-empty-sphere-4
v 4 2.019215 3.19509 1
v 4 3 3.75 1
v 4 2.25 3 1
v 4 2.30709 3.287013 1
v 4 2.376398 3.416678 1
v 4 2.46967 3.53033 1
v 4 2.264411 3.146318 1
v 4 2.853682 3.735589 1
v 4 2.583322 3.623602 1
v 4 2.712987 3.69291 1
v 4.2921005 2.076121 3 1
v 4.4240645 2.184507 3.162212 1
v 4.2921005 2.093873 3.18024 1
v 4.1489115 2.03806 3.191342 1
v 4.4240645 2.231822 3.31819 1
v 4.2921005 2.146447 3.353553 1
v 4.1489115 2.093873 3.37533 1
v 4.4240645 2.308659 3.46194 1
v 4.2921005 2.231822 3.51328 1
v 4.1489115 2.184507 3.544895 1
v 4.4240645 2.412062 3.587938 1
v 4.2921005 2.346719 3.653281 1
v 4.1489115 2.30648 3.69352 1
v 4.4240645 2.53806 3.691341 1
v 4.2921005 2.48672 3.768178 1
v 4.1489115 2.455105 3.815493 1
v 4.4240645 2.681811 3.768177 1
v 4.2921005 2.646447 3.853553 1
v 4.1489115 2.62467 3.906127 1
v 4.4240645 2.837788 3.815493 1
v 4.2921005 2.81976 3.906127 1
v 4.1489115 2.808658 3.961939 1
v 4.1489115 3 3.980785 1
v 4.4240645 3 3.831469 1
v 4.2921005 3 3.923879 1
v 4.4998375 3 3.75 1
v 4 3 3.999999 1
v 4.4240645 2.168531 3 1
v 4.1489115 2.019215 3 1
v 4 2 3 1
v 4.4998375 2.25 3 1
v 4 2.076121 3.382683 1
v 4 2.292894 3.707106 1
v 4 2.44443 3.831469 1
v 4 2.168531 3.55557 1
v 4 2.617317 3.923879 1
v 4 2.80491 3.980785 1
v 4.4998375 2.264411 3.146318 1
v 4.499837 2.30709 3.287013 1
v 4.4998375 2.376398 3.416678 1
v 4.4998375 2.46967 3.53033 1
v 4.4998375 2.583322 3.623602 1
v 4.499837 2.712987 3.69291 1
v 4.4998375 2.853682 3.735589 1
f 1336 1302 1337 1333 1335 1334
f 1311 1339 1340 1303 1341 1338
f 1342 1345 1305 1304
f 1343 1344 1309 1306
f 1301 1307 1303 1340
f 1347 1308 1310 1346
f 1342 1304 1307 1301
f 1343 1306 1305 1345
f 1346 1310 1309 1344
f 1337 1302 1308 1347
f 1341 1303 1307 1348
f 1348 1307 1304 1349
f 1349 1304 1305 1350
f 1305 1306 1351 1350
f 1351 1306 1309 1352
f 1352 1309 1310 1353
f 1353 1310 1308 1354
f 1354 1308 1302 1336
f 1301 1340 1339 1314
f 1348 1312 1338 1341
f 1311 1338 1312 1313
f 1339 1311 1313 1314
f 1349 1315 1312 1348
f 1313 1312 1315 1316
f 1314 1313 1316 1317
f 1301 1314 1317 1342
f 1350 1318 1315 1349
f 1316 1315 1318 1319
f 1317 1316 1319 1320
f 1317 1320 1345 1342
f 1351 1321 1318 1350
f 1319 1318 1321 1322
f 1320 1319 1322 1323
f 1320 1323 1343 1345
f 1352 1324 1321 1351
f 1322 1321 1324 1325
f 1323 1322 1325 1326
f 1343 1323 1326 1344
f 1325 1324 1327 1328
f 1326 1325 1328 1329
f 1344 1326 1329 1346
f 1353 1327 1324 1352
f 1354 1330 1327 1353
f 1328 1327 1330 1331
f 1329 1328 1331 1332
f 1346 1329 1332 1347
f 1332 1331 1335 1333
f 1347 1332 1333 1337
f 1336 1334 1330 1354
f 1335 1331 1330 1334
o edge-rounded-empty-sphere-4
v 2.019215 4 2.80491 1
v 3 4 2.25 1
v 2.25 4 3 1
v 2.30709 4 2.712987 1
v 2.376398 4 2.583322 1
v 2.46967 4 2.46967 1
v 2.264411 4 2.853682 1
v 2.853682 4 2.264411 1
v 2.583322 4 2.376398 1
v 2.712987 4 2.30709 1
v 2.076121 4.2921005 3 1
v 2.184507 4.4240645 2.837788 1
v 2.093873 4.2921005 2.81976 1
v 2.03806 4.1489115 2.808658 1
v 2.231822 4.4240645 2.68181 1
v 2.146447 4.2921005 2.646447 1
v 2.093873 4.1489115 2.62467 1
v 2.308659 4.4240645 2.53806 1
v 2.231822 4.2921005 2.48672 1
v 2.184507 4.1489115 2.455105 1
v 2.412062 4.4240645 2.412062 1
v 2.346719 4.2921005 2.346719 1
v 2.30648 4.1489115 2.30648 1
v 2.53806 4.4240645 2.308659 1
v 2.48672 4.2921005 2.231822 1
v 2.455105 4.1489115 2.184507 1
v 2.681811 4.4240645 2.231823 1
v 2.646447 4.2921005 2.146447 1
v 2.62467 4.1489115 2.093873 1
v 2.837788 4.4240645 2.184507 1
v 2.81976 4.2921005 2.093873 1
v 2.808658 4.1489115 2.038061 1
v 3 4.1489115 2.019215 1
v 3 4.4240645 2.168531 1
v 3 4.2921005 2.076121 1
v 3 4.4998375 2.25 1
v 3 4 2.000001 1
v 2.168531 4.4240645 3 1
v 2.019215 4.1489115 3 1
v 2 4 3 1
v 2.25 4.4998375 3 1
v 2.076121 4 2.617317 1
v 2.292894 4 2.292894 1
v 2.44443 4 2.168531 1
v 2.168531 4 2.44443 1
v 2.617317 4 2.076121 1
v 2.80491 4 2.019215 1
v 2.264411 4.4998375 2.853682 1
v 2.30709 4.499837 2.712987 1
v 2.376398 4.4998375 2.583322 1
v 2.46967 4.4998375 2.46967 1
v 2.583322 4.4998375 2.376398 1
v 2.712987 4.499837 2.30709 1
v 2.853682 4.4998375 2.264411 1
f 1390 1356 1391 1387 1389 1388
f 1365 1393 1394 1357 1395 1392
f 1396 1399 1359 1358
f 1397 1398 1363 1360
f 1355 1361 1357 1394
f 1401 1362 1364 1400
f 1396 1358 1361 1355
f 1397 1360 1359 1399
f 1400 1364 1363 1398
f 1391 1356 1362 1401
f 1395 1357 1361 1402
f 1402 1361 1358 1403
f 1403 1358 1359 1404
f 1359 1360 1405 1404
f 1405 1360 1363 1406
f 1406 1363 1364 1407
f 1407 1364 1362 1408
f 1408 1362 1356 1390
f 1355 1394 1393 1368
f 1402 1366 1392 1395
f 1365 1392 1366 1367
f 1393 1365 1367 1368
f 1403 1369 1366 1402
f 1367 1366 1369 1370
f 1368 1367 1370 1371
f 1355 1368 1371 1396
f 1404 1372 1369 1403
f 1370 1369 1372 1373
f 1371 1370 1373 1374
f 1371 1374 1399 1396
f 1405 1375 1372 1404
f 1373 1372 1375 1376
f 1374 1373 1376 1377
f 1374 1377 1397 1399
f 1406 1378 1375 1405
f 1376 1375 1378 1379
f 1377 1376 1379 1380
f 1397 1377 1380 1398
f 1379 1378 1381 1382
f 1380 1379 1382 1383
f 1398 1380 1383 1400
f 1407 1381 1378 1406
f 1408 1384 1381 1407
f 1382 1381 1384 1385
f 1383 1382 1385 1386
f 1400 1383 1386 1401
f 1386 1385 1389 1387
f 1401 1386 1387 1391
f 1390 1388 1384 1408
f 1389 1385 1384 1388
