o edge-rounded
v 3 -1 1 1
v 3 -1 0 1
v 2 -1 1 1
v 2 -1 0 1
v 2 1 1 1
v 2 1 0 1
v 2.19509 0.96157 1 1
v 2.19509 0.96157 0 1
v 2.382683 0.84776 1 1
v 2.382683 0.84776 0 1
v 2.55557 0.66294 1 1
v 2.55557 0.66294 0 1
v 2.707107 0.414214 1 1
v 2.707107 0.414214 0 1
v 2.83147 0.11114 1 1
v 2.83147 0.11114 0 1
v 2.92388 -0.234634 1 1
v 2.92388 -0.234634 0 1
v 2.980785 -0.60982 1 1
v 2.980785 -0.60982 0 1
v 2 -1 1 1
v 2 -1 1 1
f 1 2 4 3
f 21 22 3
f 15 17 19 1 3 22 21 5 7 9 11 13
f 5 6 8 7
f 7 8 10 9
f 9 10 12 11
f 11 12 14 13
f 13 14 16 15
f 15 16 18 17
f 17 18 20 19
f 19 20 2 1
f 3 4 6 5 21
f 2 20 18 16 14 12 10 8 6 4
o cube
v 0 1 2 1
v 0 0 2 1
v 1 0 2 1
v 1 1 2 1
v 0 1 1 1
v 0 0 1 1
v 1 0 1 1
v 1 1 1 1
f 23 24 25 26
f 30 29 28 27
f 26 25 29 30
f 27 23 26 30
f 27 28 24 23
f 24 28 29 25
o cube
v 0 1 0 1
v 0 0 0 1
v 1 0 0 1
v 1 1 0 1
v 0 1 -1 1
v 0 0 -1 1
v 1 0 -1 1
v 1 1 -1 1
f 31 32 33 34
f 38 37 36 35
f 34 33 37 38
f 35 31 34 38
f 35 36 32 31
f 32 36 37 33
o edge-rounded
v 2 0 0 1
v 2 4 0 1
v 1 0 0 1
v 1 4 0 1
v 1 0 -1 1
v 1 4 -1 1
v 1.19509 0 -0.980785 1
v 1.19509 4 -0.980785 1
v 1.382683 0 -0.92388 1
v 1.382683 4 -0.92388 1
v 1.55557 0 -0.83147 1
v 1.55557 4 -0.83147 1
v 1.707107 0 -0.707107 1
v 1.707107 4 -0.707107 1
v 1.83147 0 -0.55557 1
v 1.83147 4 -0.55557 1
v 1.92388 0 -0.382683 1
v 1.92388 4 -0.382683 1
v 1.980785 0 -0.19509 1
v 1.980785 4 -0.19509 1
v 1 0 0 1
v 1 0 0 1
f 39 40 42 41
f 59 60 41
f 53 55 57 39 41 60 59 43 45 47 49 51
f 43 44 46 45
f 45 46 48 47
f 47 48 50 49
f 49 50 52 51
f 51 52 54 53
f 53 54 56 55
f 55 56 58 57
f 57 58 40 39
f 41 42 44 43 59
f 40 58 56 54 52 50 48 46 44 42
o edge-rounded
v 0 0 -1 1
v 0 1 -1 1
v 0 0 0 1
v 0 1 0 1
v -1 0 0 1
v -1 1 0 1
v -0.980785 0 -0.19509 1
v -0.980785 1 -0.19509 1
v -0.92388 0 -0.382683 1
v -0.92388 1 -0.382683 1
v -0.83147 0 -0.55557 1
v -0.83147 1 -0.55557 1
v -0.707107 0 -0.707107 1
v -0.707107 1 -0.707107 1
v -0.55557 0 -0.83147 1
v -0.55557 1 -0.83147 1
v -0.382683 0 -0.92388 1
v -0.382683 1 -0.92388 1
v -0.19509 0 -0.980785 1
v -0.19509 1 -0.980785 1
v 0 0 0 1
v 0 0 0 1
f 61 62 64 63
f 81 82 63
f 75 77 79 61 63 82 81 65 67 69 71 73
f 65 66 68 67
f 67 68 70 69
f 69 70 72 71
f 71 72 74 73
f 73 74 76 75
f 75 76 78 77
f 77 78 80 79
f 79 80 62 61
f 63 64 66 65 81
f 62 80 78 76 74 72 70 68 66 64
o edge-rounded
v 1 0 2 1
v 1 3 2 1
v 1 0 1 1
v 1 3 1 1
v 2 0 1 1
v 2 3 1 1
v 1.980785 0 1.19509 1
v 1.980785 3 1.19509 1
v 1.92388 0 1.382683 1
v 1.92388 3 1.382683 1
v 1.83147 0 1.55557 1
v 1.83147 3 1.55557 1
v 1.707107 0 1.707107 1
v 1.707107 3 1.707107 1
v 1.55557 0 1.83147 1
v 1.55557 3 1.83147 1
v 1.382683 0 1.92388 1
v 1.382683 3 1.92388 1
v 1.19509 0 1.980785 1
v 1.19509 3 1.980785 1
v 1 0 1 1
v 1 0 1 1
f 83 84 86 85
f 103 104 85
f 97 99 101 83 85 104 103 87 89 91 93 95
f 87 88 90 89
f 89 90 92 91
f 91 92 94 93
f 93 94 96 95
f 95 96 98 97
f 97 98 100 99
f 99 100 102 101
f 101 102 84 83
f 85 86 88 87 103
f 84 102 100 98 96 94 92 90 88 86
o cube
v 1 1 1 1
v 1 0 1 1
v 2 0 1 1
v 2 1 1 1
v 1 1 0 1
v 1 0 0 1
v 2 0 0 1
v 2 1 0 1
f 105 106 107 108
f 112 111 110 109
f 108 107 111 112
f 109 105 108 112
f 109 110 106 105
f 106 110 111 107
o edge-rounded
v -1 0 1 1
v -1 2 1 1
v 0 0 1 1
v 0 2 1 1
v 0 0 2 1
v 0 2 2 1
v -0.19509 0 1.980785 1
v -0.19509 2 1.980785 1
v -0.382683 0 1.92388 1
v -0.382683 2 1.92388 1
v -0.55557 0 1.83147 1
v -0.55557 2 1.83147 1
v -0.707107 0 1.707107 1
v -0.707107 2 1.707107 1
v -0.83147 0 1.55557 1
v -0.83147 2 1.55557 1
v -0.92388 0 1.382683 1
v -0.92388 2 1.382683 1
v -0.980785 0 1.19509 1
v -0.980785 2 1.19509 1
v 0 0 1 1
v 0 0 1 1
f 113 114 116 115
f 133 134 115
f 127 129 131 113 115 134 133 117 119 121 123 125
f 117 118 120 119
f 119 120 122 121
f 121 122 124 123
f 123 124 126 125
f 125 126 128 127
f 127 128 130 129
f 129 130 132 131
f 131 132 114 113
f 115 116 118 117 133
f 114 132 130 128 126 124 122 120 118 116
o cube
v -1 1 1 1
v -1 0 1 1
v 0 0 1 1
v 0 1 1 1
v -1 1 0 1
v -1 0 0 1
v 0 0 0 1
v 0 1 0 1
f 135 136 137 138
f 142 141 140 139
f 138 137 141 142
f 139 135 138 142
f 139 140 136 135
f 136 140 141 137
o edge-rounded
v -2 -1 1 1
v -2 -1 0 1
v -1 -1 1 1
v -1 -1 0 1
v -1 1 1 1
v -1 1 0 1
v -1.19509 0.96157 1 1
v -1.19509 0.96157 0 1
v -1.382683 0.84776 1 1
v -1.382683 0.84776 0 1
v -1.55557 0.66294 1 1
v -1.55557 0.66294 0 1
v -1.707107 0.414214 1 1
v -1.707107 0.414214 0 1
v -1.83147 0.11114 1 1
v -1.83147 0.11114 0 1
v -1.92388 -0.234634 1 1
v -1.92388 -0.234634 0 1
v -1.980785 -0.60982 1 1
v -1.980785 -0.60982 0 1
v -1 -1 1 1
v -1 -1 1 1
f 143 144 146 145
f 163 164 145
f 157 159 161 143 145 164 163 147 149 151 153 155
f 147 148 150 149
f 149 150 152 151
f 151 152 154 153
f 153 154 156 155
f 155 156 158 157
f 157 158 160 159
f 159 160 162 161
f 161 162 144 143
f 145 146 148 147 163
f 144 162 160 158 156 154 152 150 148 146
